{"glyphs":{"0":{"ha":772,"x_min":0,"x_max":0,"o":"m 53 482 b 388 -15 53 224 139 -15 b 731 506 679 -15 731 281 b 643 856 731 688 693 782 b 390 983 607 910 526 983 b 53 482 79 983 53 611 z m 522 471 b 393 149 522 338 504 149 b 264 468 289 149 264 303 b 296 739 264 492 264 640 b 392 822 306 768 332 822 b 497 710 468 822 492 736 b 522 471 515 646 522 532 z "},"1":{"ha":772,"x_min":0,"x_max":0,"o":"m 132 631 b 358 754 238 674 318 724 l 358 0 l 568 0 l 568 969 l 389 969 b 132 824 308 911 222 863 z "},"2":{"ha":772,"x_min":0,"x_max":0,"o":"m 35 0 l 715 0 l 715 161 b 518 157 683 160 667 160 b 251 151 408 156 392 154 b 710 718 671 489 710 618 b 382 982 710 868 593 982 b 106 876 264 982 161 946 b 49 694 49 806 49 733 l 261 694 b 383 836 263 722 272 836 b 499 713 456 836 499 786 b 432 572 499 668 486 638 b 286 425 381 510 331 465 l 35 196 z "},"3":{"ha":772,"x_min":0,"x_max":0,"o":"m 31 264 b 119 44 31 225 33 115 b 353 -21 182 -6 283 -21 b 704 265 554 -21 704 101 b 625 439 704 311 693 382 b 510 499 581 476 540 489 b 696 718 553 511 696 556 b 369 982 696 824 617 982 b 100 875 267 982 164 953 b 43 711 51 815 47 754 l 256 711 b 374 832 256 792 314 832 b 493 717 436 832 493 793 b 253 572 493 578 350 575 l 253 410 b 492 267 354 410 492 410 b 367 135 492 192 444 135 b 242 264 251 135 243 233 z "},"4":{"ha":772,"x_min":0,"x_max":0,"o":"m 411 211 l 411 0 l 617 0 l 617 211 l 749 211 l 749 371 l 617 371 l 618 969 l 411 969 l 22 399 l 22 211 z m 425 729 b 422 622 424 704 422 635 l 422 367 l 178 367 z "},"5":{"ha":772,"x_min":0,"x_max":0,"o":"m 43 239 b 97 85 44 203 49 143 b 368 -21 164 6 267 -21 b 714 331 617 -21 714 165 b 428 639 714 525 583 639 b 244 569 321 639 275 596 l 257 810 l 661 810 l 661 968 l 74 968 l 51 394 l 253 389 b 376 486 260 411 283 486 b 506 313 469 486 506 406 b 363 131 506 185 438 131 b 249 239 265 131 247 217 z "},"6":{"ha":772,"x_min":0,"x_max":0,"o":"m 721 729 b 432 982 717 907 578 982 b 208 914 394 982 293 978 b 51 421 76 817 51 615 b 386 -19 51 306 51 -19 b 633 71 494 -19 569 11 b 736 324 707 139 736 217 b 458 631 736 535 593 631 b 268 553 357 631 303 585 b 414 825 271 653 275 825 b 515 729 465 825 511 799 z m 399 136 b 267 306 331 136 267 186 b 407 476 267 456 372 476 b 532 310 476 476 532 417 b 399 136 532 178 458 136 z "},"7":{"ha":772,"x_min":0,"x_max":0,"o":"m 51 807 l 497 807 l 143 0 l 375 0 l 708 796 l 708 968 l 51 968 z "},"8":{"ha":772,"x_min":0,"x_max":0,"o":"m 242 508 b 114 436 206 496 161 482 b 43 267 72 396 43 342 b 376 -15 43 111 179 -15 b 732 267 567 -15 732 89 b 688 411 732 314 721 364 b 532 511 636 483 571 500 b 722 724 631 526 722 607 b 393 986 722 875 588 986 b 58 715 157 986 58 833 b 242 508 58 565 193 524 z m 390 588 b 265 713 314 588 265 644 b 392 833 265 786 322 833 b 521 713 457 833 521 792 b 390 588 521 635 461 588 z m 390 133 b 250 278 324 133 250 179 b 389 421 250 360 308 421 b 528 281 463 421 528 368 b 390 133 528 172 449 133 z "},"9":{"ha":772,"x_min":0,"x_max":0,"o":"m 46 236 b 346 -18 46 -18 292 -18 b 719 508 581 -18 719 99 b 378 981 719 664 711 981 b 35 663 164 981 35 843 b 333 358 35 547 96 358 b 508 425 376 358 439 363 b 357 142 513 292 501 142 b 256 236 299 142 261 178 z m 371 518 b 240 671 250 518 240 638 b 375 824 240 744 276 824 b 504 676 460 824 504 761 b 371 518 504 608 474 518 z "}," ":{"ha":386,"x_min":0,"x_max":0,"o":""},"!":{"ha":540,"x_min":0,"x_max":0,"o":"m 339 274 l 357 1004 l 171 1004 l 196 274 z m 179 0 l 356 0 l 356 185 l 179 185 z "},"\"":{"ha":658,"x_min":0,"x_max":0,"o":"m 101 968 l 139 624 l 249 624 l 286 968 z m 368 968 l 406 624 l 515 624 l 551 968 z "},"#":{"ha":772,"x_min":0,"x_max":0,"o":"m -12 243 l 101 243 l 57 0 l 236 0 l 281 243 l 414 243 l 368 0 l 546 0 l 590 243 l 733 243 l 733 396 l 619 396 l 650 564 l 793 564 l 793 717 l 678 717 l 725 968 l 546 968 l 500 717 l 368 717 l 414 968 l 236 968 l 190 717 l 47 717 l 47 564 l 161 564 l 131 396 l -12 396 z m 308 396 l 340 564 l 472 564 l 440 396 z "},"$":{"ha":772,"x_min":0,"x_max":0,"o":"m 33 299 b 110 79 36 203 51 133 b 339 -3 131 60 207 -7 l 339 -142 l 413 -142 l 413 -3 b 608 57 463 0 536 6 b 726 281 663 96 726 169 b 422 565 726 479 578 526 l 422 813 b 531 685 483 806 526 788 l 717 685 b 647 875 715 731 714 808 b 425 958 582 940 499 953 l 425 1072 l 349 1072 l 349 956 b 124 857 297 950 203 943 b 53 674 64 792 53 724 b 340 390 53 486 192 432 l 340 144 b 222 299 311 144 218 160 z m 347 586 b 242 701 293 603 242 622 b 347 810 242 760 275 806 z m 415 375 b 528 260 496 353 528 318 b 415 142 528 186 472 147 z "},"%":{"ha":1235,"x_min":0,"x_max":0,"o":"m 69 790 b 292 526 69 640 128 526 b 528 804 528 526 528 735 b 301 1058 528 935 494 1058 b 69 790 71 1058 69 863 z m 219 796 b 301 950 219 838 219 950 b 376 803 372 950 376 860 b 296 640 376 671 343 640 b 219 796 238 640 219 689 z m 708 253 b 929 -12 708 103 765 -12 b 1167 267 1167 -12 1167 196 b 940 519 1167 396 1132 519 b 708 253 708 519 708 324 z m 857 257 b 939 411 857 300 857 411 b 1015 264 1010 411 1015 321 b 935 101 1015 132 982 101 b 857 257 875 101 857 151 z m 824 1068 l 296 -17 l 400 -17 l 928 1068 z "},"&":{"ha":1081,"x_min":0,"x_max":0,"o":"m 776 624 b 736 347 776 517 775 454 l 533 551 b 728 811 586 581 728 657 b 428 1031 728 883 688 1031 b 121 803 154 1031 121 863 b 242 590 121 689 208 618 b 104 474 207 568 156 538 b 32 276 43 397 32 325 b 411 -26 32 83 193 -26 b 736 90 581 -26 672 42 l 814 -3 l 1074 -3 l 869 208 b 982 624 953 340 982 456 z m 426 660 b 326 808 413 671 326 746 b 428 897 326 861 367 897 b 528 806 489 897 528 860 b 426 660 528 739 456 681 z m 610 201 b 425 126 564 164 490 126 b 249 293 333 126 249 188 b 357 458 249 368 296 418 z "},"’":{"ha":386,"x_min":0,"x_max":0,"o":"m 54 660 l 200 660 l 356 1003 l 153 1003 z "},"(":{"ha":463,"x_min":0,"x_max":0,"o":"m 228 1051 b 86 432 150 853 86 646 b 226 -171 86 224 147 22 l 378 -171 b 257 439 296 114 257 253 b 379 1051 257 688 333 913 z "},")":{"ha":463,"x_min":0,"x_max":0,"o":"m 235 -171 b 376 450 313 29 376 236 b 236 1051 376 657 315 860 l 85 1051 b 206 442 167 767 206 629 b 83 -171 206 193 129 -32 z "},"*":{"ha":772,"x_min":0,"x_max":0,"o":"m 93 646 l 303 674 l 174 504 l 299 429 l 379 626 l 460 431 l 589 501 l 458 672 l 665 640 l 668 788 l 456 763 l 592 926 l 463 1003 l 381 807 l 303 999 l 174 928 l 304 763 l 93 793 z "},"+":{"ha":811,"x_min":0,"x_max":0,"o":"m 313 0 l 499 0 l 499 281 l 775 281 l 775 460 l 499 460 l 499 740 l 313 740 l 313 460 l 36 460 l 36 281 l 313 281 z "},",":{"ha":386,"x_min":0,"x_max":0,"o":"m 142 185 l 39 -157 l 182 -157 l 347 185 z "},"-":{"ha":463,"x_min":0,"x_max":0,"o":"m 61 289 l 406 289 l 406 446 l 61 446 z "},".":{"ha":386,"x_min":0,"x_max":0,"o":"m 103 0 l 279 0 l 279 185 l 103 185 z "},"/":{"ha":617,"x_min":0,"x_max":0,"o":"m 417 997 l 40 0 l 203 0 l 576 997 z "},":":{"ha":386,"x_min":0,"x_max":0,"o":"m 106 0 l 281 0 l 281 186 l 106 186 z m 106 514 l 281 514 l 281 701 l 106 701 z "},";":{"ha":386,"x_min":0,"x_max":0,"o":"m 111 514 l 286 514 l 286 701 l 111 701 z m 121 185 l 18 -157 l 161 -157 l 326 185 z "},"<":{"ha":811,"x_min":0,"x_max":0,"o":"m 36 278 l 775 -10 l 775 186 l 258 371 l 775 556 l 775 750 l 36 464 z "},"=":{"ha":811,"x_min":0,"x_max":0,"o":"m 36 442 l 775 442 l 775 621 l 36 621 z m 36 119 l 775 119 l 775 299 l 36 299 z "},">":{"ha":811,"x_min":0,"x_max":0,"o":"m 776 278 l 776 464 l 36 750 l 36 556 l 553 371 l 36 186 l 36 -10 z "},"?":{"ha":694,"x_min":0,"x_max":0,"o":"m 356 225 l 356 338 b 439 471 356 383 365 404 l 518 542 b 590 629 533 556 549 569 b 629 763 626 682 629 736 b 299 1022 629 949 463 1022 b 64 994 188 1022 117 1008 l 64 850 b 249 883 140 871 185 883 b 415 746 404 883 415 779 b 310 544 415 676 365 607 l 249 476 b 197 354 197 418 197 385 l 197 225 z m 193 0 l 360 0 l 360 167 l 193 167 z "},"@":{"ha":1354,"x_min":0,"x_max":0,"o":"m 1074 188 b 703 56 906 58 765 56 b 254 483 443 56 254 217 b 718 944 254 782 471 944 b 1094 614 892 944 1094 858 b 931 340 1094 447 1001 340 b 883 389 907 340 883 356 b 901 474 883 414 893 447 l 985 760 l 847 760 l 829 697 b 797 744 824 711 817 726 b 683 782 767 772 721 782 b 407 453 525 782 407 615 b 593 240 407 318 488 240 b 778 358 647 240 725 260 b 801 293 779 342 782 318 b 907 249 831 257 875 249 b 1190 607 1068 249 1190 411 b 721 1025 1190 883 968 1025 b 164 489 422 1025 164 821 b 697 -25 164 185 383 -25 b 1121 125 838 -25 964 11 z m 571 432 b 717 682 571 556 643 682 b 785 617 763 682 785 649 b 733 424 785 611 771 504 b 640 340 719 393 692 340 b 571 432 574 340 571 418 z "},"A":{"ha":1003,"x_min":0,"x_max":0,"o":"m 369 1004 l 7 0 l 213 0 l 288 217 l 685 217 l 757 0 l 974 0 l 625 1004 z m 343 379 l 492 807 l 631 379 z "},"B":{"ha":926,"x_min":0,"x_max":0,"o":"m 94 0 l 469 0 b 722 40 508 0 644 0 b 869 276 800 79 869 158 b 657 521 869 382 810 493 l 657 524 b 771 592 715 539 764 583 b 829 742 822 639 829 704 b 717 956 829 800 808 897 b 469 1003 640 1003 528 1003 l 94 1003 z m 300 849 l 446 849 b 622 724 517 849 622 849 b 450 594 622 594 511 594 l 300 594 z m 300 439 l 424 439 b 656 296 526 439 656 439 b 446 161 656 161 544 161 l 300 161 z "},"C":{"ha":926,"x_min":0,"x_max":0,"o":"m 881 676 b 507 1010 881 876 726 1010 b 47 481 225 1010 47 799 b 506 -24 47 232 160 -24 b 799 89 597 -24 710 -3 b 889 325 879 172 885 265 l 663 325 b 482 135 658 192 572 135 b 272 479 272 135 272 419 b 499 853 272 686 339 853 b 661 676 644 853 657 711 z "},"D":{"ha":1003,"x_min":0,"x_max":0,"o":"m 90 0 l 403 0 b 583 11 504 0 546 4 b 939 515 774 46 939 207 b 768 910 939 658 894 817 b 422 1000 647 999 478 1000 l 90 1001 z m 308 839 b 533 825 432 844 489 838 b 717 515 668 788 717 657 b 626 232 717 467 711 317 b 393 163 564 169 485 163 b 308 165 368 163 332 164 z "},"E":{"ha":849,"x_min":0,"x_max":0,"o":"m 103 0 l 790 0 l 790 167 l 318 167 l 318 438 l 746 438 l 746 601 l 318 601 l 318 840 l 775 840 l 775 1004 l 103 1004 z "},"F":{"ha":772,"x_min":0,"x_max":0,"o":"m 96 0 l 311 0 l 311 428 l 714 428 l 714 594 l 311 594 l 311 842 l 743 842 l 743 1003 l 96 1003 z "},"G":{"ha":1081,"x_min":0,"x_max":0,"o":"m 993 696 b 921 906 992 750 988 829 b 579 1032 842 996 708 1032 b 53 486 275 1032 53 842 b 186 111 53 381 74 221 b 613 -22 265 33 383 -22 b 979 33 814 -22 917 13 l 979 535 l 569 535 l 569 368 l 764 368 l 764 157 b 600 138 740 150 704 138 b 364 224 481 138 414 168 b 281 493 290 303 281 425 b 574 875 281 647 329 875 b 742 797 621 875 700 864 b 769 696 767 758 768 722 z "},"H":{"ha":1003,"x_min":0,"x_max":0,"o":"m 93 0 l 308 0 l 308 440 l 690 440 l 690 0 l 906 0 l 906 1004 l 688 1004 l 688 603 l 308 603 l 308 1004 l 93 1004 z "},"I":{"ha":386,"x_min":0,"x_max":0,"o":"m 83 0 l 299 0 l 299 1007 l 83 1007 z "},"J":{"ha":772,"x_min":0,"x_max":0,"o":"m 13 325 b 65 113 14 274 17 186 b 328 -10 129 13 219 -10 b 522 33 425 -10 483 10 b 678 388 649 111 678 233 l 678 1004 l 460 1004 l 460 389 b 451 232 460 336 460 274 b 342 147 444 206 425 147 b 224 325 253 147 226 217 z "},"K":{"ha":926,"x_min":0,"x_max":0,"o":"m 93 0 l 308 0 l 308 511 l 660 0 l 928 0 l 528 554 l 896 1004 l 644 1004 l 308 569 l 308 1001 l 93 1001 z "},"L":{"ha":772,"x_min":0,"x_max":0,"o":"m 96 0 l 746 0 l 746 171 l 315 171 l 315 1003 l 96 1003 z "},"M":{"ha":1311,"x_min":0,"x_max":0,"o":"m 83 0 l 285 0 l 285 861 l 553 0 l 731 0 l 1004 861 l 1004 0 l 1218 0 l 1218 1004 l 876 1004 l 647 274 l 435 1004 l 83 1004 z "},"N":{"ha":1081,"x_min":0,"x_max":0,"o":"m 100 0 l 303 0 l 303 833 l 692 0 l 988 0 l 988 1004 l 788 1004 l 788 214 l 411 1004 l 100 1004 z "},"O":{"ha":1081,"x_min":0,"x_max":0,"o":"m 58 488 b 182 113 58 396 72 229 b 538 -25 274 17 406 -25 b 894 118 621 -25 783 -7 b 1021 511 976 210 1021 365 b 893 889 1021 610 1000 767 b 540 1025 794 1000 647 1025 b 58 488 179 1025 58 754 z m 283 494 b 357 786 283 608 300 717 b 542 871 397 838 461 871 b 771 693 644 871 729 817 b 796 514 792 632 796 563 b 728 226 796 354 761 276 b 540 133 688 164 628 133 b 358 214 440 133 389 172 b 283 494 299 292 283 399 z "},"P":{"ha":849,"x_min":0,"x_max":0,"o":"m 90 0 l 308 0 l 308 390 l 454 390 b 682 438 507 390 608 390 b 810 704 761 489 810 588 b 749 892 810 756 801 828 b 400 1001 665 992 544 1001 l 90 1001 z m 303 839 l 411 839 b 588 703 472 839 588 839 b 389 550 588 550 458 550 l 303 550 z "},"Q":{"ha":1081,"x_min":0,"x_max":0,"o":"m 1057 154 b 832 144 971 158 878 153 b 983 518 879 189 983 290 b 531 1024 983 847 790 1024 b 47 494 190 1024 47 768 b 489 -15 47 333 114 -15 b 647 -7 513 -15 579 -11 b 810 0 715 -4 785 0 b 1057 -3 875 0 994 -1 z m 269 507 b 522 871 269 690 333 871 b 703 778 619 871 678 817 b 765 521 733 732 765 664 b 515 140 765 360 726 140 b 269 507 311 140 269 365 z "},"R":{"ha":926,"x_min":0,"x_max":0,"o":"m 83 0 l 303 0 l 303 406 l 492 406 b 600 349 528 406 581 406 b 654 0 614 310 644 56 l 892 0 b 861 72 881 17 872 28 b 831 267 854 100 846 149 b 650 497 813 397 801 483 b 860 743 699 511 860 556 b 772 936 860 808 835 882 b 468 1004 692 1006 579 1006 l 83 1004 z m 296 846 l 440 846 b 582 822 508 846 549 846 b 635 710 601 810 635 778 b 579 593 635 639 594 604 b 469 565 544 565 494 565 l 296 565 z "},"S":{"ha":926,"x_min":0,"x_max":0,"o":"m 49 321 b 438 -24 50 224 53 -24 b 865 303 715 -24 865 122 b 521 588 865 499 694 546 b 303 733 376 624 303 640 b 468 869 303 815 368 869 b 631 717 617 869 628 751 l 838 717 b 781 903 838 750 838 831 b 478 1021 706 997 582 1021 b 81 710 199 1021 81 875 b 450 406 81 536 211 465 b 640 271 578 375 640 360 b 450 131 640 186 567 131 b 268 321 265 131 268 274 z "},"T":{"ha":849,"x_min":0,"x_max":0,"o":"m 318 0 l 535 0 l 535 838 l 833 838 l 833 1004 l 19 1004 l 19 838 l 318 838 z "},"U":{"ha":1081,"x_min":0,"x_max":0,"o":"m 100 1001 l 100 401 b 151 154 100 308 103 231 b 529 -19 246 3 429 -19 b 969 375 732 -19 969 76 l 969 1001 l 760 1001 l 760 401 b 728 231 760 300 749 261 b 533 143 672 144 568 143 b 315 390 324 143 315 281 l 315 1001 z "},"V":{"ha":1003,"x_min":0,"x_max":0,"o":"m 17 1000 l 386 0 l 621 0 l 990 1000 l 778 1000 l 514 213 l 251 1000 z "},"W":{"ha":1389,"x_min":0,"x_max":0,"o":"m 21 1000 l 265 -3 l 510 -3 l 706 764 l 888 -3 l 1126 -3 l 1382 1000 l 1176 1000 l 1014 249 l 838 1000 l 594 1000 l 399 249 l 243 1000 z "},"X":{"ha":1003,"x_min":0,"x_max":0,"o":"m 42 1004 l 371 519 l 18 0 l 249 0 l 489 378 l 713 0 l 976 0 l 626 521 l 957 1004 l 726 1004 l 510 663 l 307 1004 z "},"Y":{"ha":926,"x_min":0,"x_max":0,"o":"m 22 1000 l 361 368 l 361 0 l 574 0 l 574 365 l 913 1000 l 692 1000 l 481 543 l 274 1000 z "},"Z":{"ha":849,"x_min":0,"x_max":0,"o":"m 38 0 l 807 0 l 807 165 l 272 157 l 796 810 l 796 1000 l 69 1000 l 69 836 l 563 840 l 38 183 z "},"[":{"ha":463,"x_min":0,"x_max":0,"o":"m 399 1044 l 81 1044 l 81 -171 l 399 -171 l 399 -42 l 247 -42 l 247 917 l 399 917 z "},"\\":{"ha":386,"x_min":0,"x_max":0,"o":"m 40 997 l 414 0 l 576 0 l 200 997 z "},"]":{"ha":463,"x_min":0,"x_max":0,"o":"m 64 917 l 215 917 l 215 -42 l 64 -42 l 64 -171 l 382 -171 l 382 1044 l 64 1044 z "},"^":{"ha":811,"x_min":0,"x_max":0,"o":"m 71 367 l 263 367 l 401 744 l 544 367 l 736 367 l 485 968 l 322 968 z "},"_":{"ha":694,"x_min":0,"x_max":0,"o":"m 0 -174 l 694 -174 l 694 -104 l 0 -104 z "},"‘":{"ha":386,"x_min":0,"x_max":0,"o":"m 333 1003 l 188 1003 l 32 660 l 235 660 z "},"a":{"ha":772,"x_min":0,"x_max":0,"o":"m 697 0 b 681 178 685 58 681 118 l 679 460 b 631 632 679 492 678 575 b 381 722 561 713 439 722 b 168 665 314 722 232 711 b 89 500 94 613 90 538 l 290 500 b 306 563 290 517 290 539 b 383 601 324 589 354 601 b 475 543 403 601 457 594 b 485 450 483 518 485 496 b 207 411 417 450 293 450 b 58 193 78 351 58 249 b 119 39 58 138 78 81 b 294 -17 147 13 193 -17 b 504 96 333 -17 426 -17 b 511 0 504 75 504 43 z m 485 331 b 446 157 485 256 482 201 b 358 117 426 135 396 117 b 258 217 290 117 258 169 b 485 331 258 300 353 342 z "},"b":{"ha":849,"x_min":0,"x_max":0,"o":"m 83 0 l 282 0 b 289 99 286 43 288 76 b 500 -14 353 -11 464 -14 b 793 340 640 -14 793 78 b 488 711 793 576 658 711 b 289 617 451 711 358 708 l 289 1001 l 83 1001 z m 583 333 b 442 121 583 297 583 121 b 281 357 349 121 281 197 b 432 574 281 401 281 574 b 583 333 581 574 583 389 z "},"c":{"ha":694,"x_min":0,"x_max":0,"o":"m 663 453 b 376 715 661 643 507 715 b 49 351 283 715 49 671 b 138 75 49 239 76 146 b 376 -18 201 3 283 -18 b 576 47 464 -18 526 4 b 667 254 657 115 664 200 l 464 254 b 369 119 456 129 392 119 b 314 143 354 119 333 122 b 263 358 267 194 263 319 b 371 582 263 435 274 582 b 461 453 450 582 458 478 z "},"d":{"ha":849,"x_min":0,"x_max":0,"o":"m 554 615 b 357 711 536 640 483 711 b 47 335 174 711 47 567 b 346 -14 47 115 158 -14 b 482 22 376 -14 431 -11 b 553 101 525 50 539 76 l 558 0 l 767 0 b 761 114 764 26 761 72 l 761 1003 l 554 1003 z m 256 340 b 408 576 256 411 271 576 b 561 364 501 576 561 501 b 528 199 561 329 558 257 b 397 119 506 156 457 119 b 256 340 294 119 256 224 z "},"e":{"ha":772,"x_min":0,"x_max":0,"o":"m 726 299 b 685 556 729 357 732 460 b 401 725 621 686 501 725 b 204 667 325 725 258 703 b 58 335 86 585 58 449 b 149 61 58 222 85 128 b 396 -26 222 -15 336 -26 b 642 56 499 -26 590 1 b 708 208 699 115 706 175 l 521 208 b 399 111 501 131 450 111 b 256 299 256 111 256 253 z m 263 428 b 394 585 267 510 304 585 b 517 428 514 585 517 460 z "},"f":{"ha":463,"x_min":0,"x_max":0,"o":"m 104 0 l 308 0 l 308 556 l 439 556 l 439 701 l 308 701 l 308 783 b 414 875 308 819 308 875 b 457 871 431 875 436 874 l 457 1014 b 346 1021 399 1021 360 1021 b 104 797 146 1021 104 921 l 104 701 l 0 701 l 0 556 l 104 556 z "},"g":{"ha":849,"x_min":0,"x_max":0,"o":"m 563 699 l 556 606 b 360 706 535 636 488 706 b 60 358 158 706 60 536 b 356 14 60 189 154 14 b 544 110 406 14 479 24 b 535 -57 543 3 543 -22 b 407 -149 521 -119 468 -149 b 285 -51 297 -149 288 -72 l 88 -51 b 396 -276 100 -264 296 -276 b 746 7 531 -276 746 -251 l 746 525 b 756 699 746 596 750 643 z m 265 358 b 407 568 265 508 329 568 b 547 354 532 568 547 433 b 403 154 547 324 547 154 b 265 358 265 154 265 324 z "},"h":{"ha":849,"x_min":0,"x_max":0,"o":"m 96 0 l 303 0 l 301 429 b 433 572 301 539 375 572 b 549 419 549 572 549 460 l 549 0 l 753 0 l 753 426 b 707 617 753 518 732 582 b 503 711 674 660 607 711 b 300 606 375 711 324 639 l 300 1003 l 96 1003 z "},"i":{"ha":386,"x_min":0,"x_max":0,"o":"m 83 824 l 303 824 l 303 1003 l 83 1003 z m 90 0 l 296 0 l 296 703 l 90 703 z "},"j":{"ha":386,"x_min":0,"x_max":0,"o":"m -3 -269 b 67 -275 28 -275 56 -275 b 296 -62 242 -275 296 -194 l 296 704 l 90 704 l 90 -11 b -3 -131 90 -47 90 -135 z m 83 824 l 303 824 l 303 1003 l 83 1003 z "},"k":{"ha":772,"x_min":0,"x_max":0,"o":"m 93 0 l 297 0 l 297 382 l 514 0 l 757 0 l 501 400 l 742 706 l 510 706 l 297 413 l 297 1004 l 93 1004 z "},"l":{"ha":386,"x_min":0,"x_max":0,"o":"m 90 0 l 296 0 l 296 1004 l 90 1004 z "},"m":{"ha":1311,"x_min":0,"x_max":0,"o":"m 94 0 l 301 0 l 301 413 b 431 571 301 460 301 571 b 546 417 544 571 546 471 l 546 0 l 753 0 l 753 351 b 879 571 753 456 756 571 b 997 413 986 571 997 488 l 997 0 l 1204 0 l 1204 396 b 1169 603 1204 457 1207 542 b 956 715 1154 631 1097 715 b 731 585 883 715 789 697 b 510 717 717 618 671 717 b 293 611 369 717 315 642 l 286 701 l 88 701 b 94 569 92 657 94 614 z "},"n":{"ha":849,"x_min":0,"x_max":0,"o":"m 93 0 l 300 0 l 300 411 b 325 518 300 465 313 500 b 432 572 347 551 388 572 b 532 513 485 572 517 543 b 543 436 543 490 543 465 l 543 0 l 753 0 l 753 379 b 733 589 753 510 749 546 b 519 721 715 638 657 721 b 292 599 367 721 311 631 l 286 704 l 89 704 b 93 576 93 656 93 579 z "},"o":{"ha":849,"x_min":0,"x_max":0,"o":"m 58 344 b 417 -25 58 99 217 -25 b 785 350 671 -25 785 153 b 421 718 785 546 675 718 b 58 344 144 718 58 514 z m 269 343 b 421 581 269 407 271 581 b 575 358 557 581 575 451 b 424 118 575 172 514 118 b 269 343 322 118 269 186 z "},"p":{"ha":849,"x_min":0,"x_max":0,"o":"m 83 701 l 83 -269 l 293 -269 l 293 81 b 489 -10 311 57 363 -10 b 794 365 692 -10 794 167 b 503 715 794 579 685 715 b 289 601 469 715 353 714 l 283 701 z m 436 125 b 283 344 285 125 283 303 b 444 583 283 533 378 583 b 586 357 565 583 586 440 b 436 125 586 218 533 125 z "},"q":{"ha":849,"x_min":0,"x_max":0,"o":"m 565 703 l 558 601 b 346 717 542 629 490 717 b 50 360 207 717 50 629 b 358 -10 50 92 217 -10 b 553 82 476 -10 532 57 l 553 -267 l 764 -267 l 764 568 b 768 703 764 596 768 690 z m 260 354 b 403 582 260 460 285 582 b 564 350 544 582 564 426 b 414 126 564 274 547 126 b 306 176 385 126 338 132 b 260 354 265 231 260 308 z "},"r":{"ha":540,"x_min":0,"x_max":0,"o":"m 90 0 l 296 0 l 296 346 b 517 521 296 433 308 540 l 517 706 b 278 569 350 714 304 629 l 274 704 l 81 704 b 90 529 85 664 90 563 z "},"s":{"ha":694,"x_min":0,"x_max":0,"o":"m 40 203 b 92 65 42 169 46 114 b 332 -21 156 -1 242 -21 b 654 221 550 -21 654 100 b 467 417 654 317 594 382 l 340 451 b 244 525 279 468 244 478 b 342 594 244 568 286 594 b 442 511 374 594 436 589 l 629 511 b 363 718 624 651 507 718 b 56 499 181 718 56 635 b 233 304 56 356 176 321 l 361 269 b 458 190 442 247 458 222 b 350 107 458 149 424 107 b 233 203 264 107 236 158 z "},"t":{"ha":540,"x_min":0,"x_max":0,"o":"m 503 144 b 433 140 478 142 464 140 b 340 244 342 140 342 181 l 340 561 l 507 561 l 507 697 l 340 697 l 340 910 l 136 835 l 136 697 l 1 697 l 1 561 l 136 561 l 136 176 b 343 -12 136 118 136 -12 b 503 10 376 -12 436 -8 z "},"u":{"ha":849,"x_min":0,"x_max":0,"o":"m 83 701 l 83 265 b 129 76 83 231 83 133 b 340 -18 168 25 246 -18 b 547 93 474 -18 526 63 l 554 0 l 754 0 b 749 51 751 19 750 32 b 744 239 749 69 747 88 l 744 701 l 533 701 l 533 347 b 401 129 533 228 533 129 b 292 283 292 129 292 222 l 292 701 z "},"v":{"ha":772,"x_min":0,"x_max":0,"o":"m 10 701 l 267 0 l 494 0 l 747 701 l 549 701 l 388 225 l 229 701 z "},"w":{"ha":1235,"x_min":0,"x_max":0,"o":"m 7 701 l 236 0 l 463 0 l 610 519 l 754 0 l 978 0 l 1218 701 l 1014 701 l 876 172 l 729 701 l 503 701 l 354 172 l 225 701 z "},"x":{"ha":772,"x_min":0,"x_max":0,"o":"m 22 701 l 247 376 l 13 0 l 228 0 l 371 257 l 513 0 l 756 0 l 521 360 l 749 701 l 535 701 l 397 472 l 265 701 z "},"y":{"ha":772,"x_min":0,"x_max":0,"o":"m 19 701 l 289 -3 l 200 -267 l 407 -267 l 492 13 l 757 701 l 553 701 l 396 215 l 242 701 z "},"z":{"ha":694,"x_min":0,"x_max":0,"o":"m 44 0 l 643 0 l 643 142 l 274 142 l 629 525 l 629 701 l 54 701 l 54 564 l 400 564 l 44 181 z "},"{":{"ha":463,"x_min":0,"x_max":0,"o":"m 143 624 b 94 483 143 554 132 517 b -21 436 58 451 6 439 l -21 317 b 143 129 143 292 143 201 l 143 81 b 213 -164 143 -79 168 -124 b 483 -251 272 -221 354 -246 l 483 -137 b 329 71 329 -129 329 -14 l 329 122 b 272 310 329 189 324 258 b 110 376 221 364 154 371 b 329 631 294 392 329 508 l 329 681 b 483 890 329 767 329 878 l 483 1004 b 143 672 150 988 143 825 z "},"|":{"ha":386,"x_min":0,"x_max":0,"o":"m 101 1042 l 101 -347 l 285 -347 l 285 1042 z "},"}":{"ha":463,"x_min":0,"x_max":0,"o":"m 319 129 b 483 317 319 200 324 290 l 483 436 b 364 485 463 439 399 451 b 319 624 331 518 319 560 l 319 672 b -21 1004 319 829 308 988 l -21 890 b 133 681 133 878 133 767 l 133 631 b 188 450 133 526 154 488 b 353 376 243 386 304 381 b 190 310 308 371 242 364 b 133 122 136 254 133 178 l 133 71 b -21 -137 133 -15 133 -129 l -21 -251 b 319 81 314 -235 319 -72 z "},"~":{"ha":811,"x_min":0,"x_max":0,"o":"m 142 240 b 224 325 149 288 176 325 b 322 301 251 325 304 307 b 571 236 431 267 524 236 b 788 501 732 236 779 393 l 669 501 b 589 418 667 483 656 418 b 388 469 551 418 526 426 b 240 504 304 494 272 504 b 25 240 126 504 35 404 z "},"¡":{"ha":540,"x_min":0,"x_max":0,"o":"m 207 468 l 190 -264 l 376 -264 l 350 468 z m 367 742 l 190 742 l 190 556 l 367 556 z "},"¢":{"ha":772,"x_min":0,"x_max":0,"o":"m 608 885 l 513 885 l 468 711 b 422 714 458 713 447 714 b 88 347 201 714 88 560 b 290 1 88 136 201 26 l 239 -206 l 333 -206 l 381 -17 b 574 18 413 -19 496 -24 b 707 254 696 83 703 203 l 504 254 b 408 119 497 136 436 119 b 301 356 328 119 301 247 b 413 582 301 414 308 582 b 501 453 493 582 500 478 l 701 453 b 558 686 701 499 700 632 z "},"£":{"ha":772,"x_min":0,"x_max":0,"o":"m 42 0 l 724 0 l 724 161 l 357 161 l 357 449 l 592 449 l 592 604 l 357 604 l 357 746 b 450 867 357 768 357 867 b 542 749 536 867 540 782 l 750 749 b 465 1007 742 844 725 1007 b 246 947 349 1007 286 975 b 144 726 146 879 144 779 l 144 604 l 26 604 l 26 449 l 143 449 l 143 161 l 42 161 z "},"⁄":{"ha":232,"x_min":0,"x_max":0,"o":"m -232 -39 l -118 -39 l 461 1007 l 347 1007 z "},"¥":{"ha":772,"x_min":0,"x_max":0,"o":"m 283 0 l 494 0 l 496 192 l 715 192 l 715 294 l 494 294 l 494 392 l 715 392 l 715 494 l 550 494 l 778 1000 l 556 1000 l 401 543 l 251 1000 l 0 1000 l 231 494 l 57 494 l 57 392 l 283 392 l 283 293 l 57 293 l 57 190 l 283 190 z "},"ƒ":{"ha":772,"x_min":0,"x_max":0,"o":"m 42 -215 b 125 -222 83 -222 115 -222 b 286 -178 207 -222 257 -197 b 358 -35 336 -144 347 -89 l 463 486 l 568 486 l 589 626 l 489 626 l 504 701 b 629 810 518 774 528 824 l 660 963 b 546 972 622 968 589 972 b 307 706 375 972 342 872 l 292 626 l 200 626 l 174 486 l 264 486 l 168 0 b 97 -61 163 -29 153 -61 b 71 -58 88 -61 79 -60 z "},"§":{"ha":772,"x_min":0,"x_max":0,"o":"m 125 14 b 363 -28 246 -26 342 -28 b 642 190 528 -28 642 61 b 525 357 642 278 579 329 b 640 531 585 385 640 440 b 499 710 640 606 608 674 l 376 750 b 314 821 360 757 314 776 b 333 864 314 838 322 854 b 394 881 351 879 381 881 b 597 826 474 881 553 846 l 601 969 b 388 1011 568 982 496 1011 b 121 817 228 1011 121 938 b 226 661 121 711 197 674 b 100 486 135 625 100 550 b 242 300 100 415 140 335 l 364 257 b 444 183 400 244 444 229 b 328 110 444 129 388 110 b 129 169 244 110 168 149 z m 371 406 b 265 508 332 418 265 442 b 364 611 265 564 311 596 b 467 518 394 606 467 589 b 371 406 467 485 444 432 z "},"¤":{"ha":772,"x_min":0,"x_max":0,"o":"m 28 235 l 135 126 l 228 219 b 385 176 258 203 308 176 b 540 219 463 176 508 201 l 633 126 l 742 235 l 649 326 b 692 483 663 351 692 403 b 649 640 692 561 665 610 l 740 733 l 633 840 l 542 747 b 382 792 507 765 456 792 b 228 749 315 792 269 769 l 135 842 l 26 733 l 121 640 b 76 483 104 610 76 560 b 121 328 76 406 103 358 z m 385 631 b 532 483 465 631 532 565 b 385 336 532 403 465 336 b 238 483 303 336 238 403 b 385 631 238 565 303 631 z "},"'":{"ha":331,"x_min":0,"x_max":0,"o":"m 108 624 l 218 624 l 256 968 l 71 968 z "},"“":{"ha":772,"x_min":0,"x_max":0,"o":"m 389 1003 l 244 1003 l 89 660 l 290 660 z m 661 1003 l 515 1003 l 360 660 l 563 660 z "},"«":{"ha":772,"x_min":0,"x_max":0,"o":"m 190 78 l 374 78 l 242 350 l 374 614 l 190 614 l 39 350 z m 528 78 l 711 78 l 579 350 l 711 614 l 528 614 l 376 350 z "},"‹":{"ha":386,"x_min":0,"x_max":0,"o":"m 175 78 l 358 78 l 226 350 l 358 614 l 175 614 l 24 350 z "},"›":{"ha":386,"x_min":0,"x_max":0,"o":"m 14 614 l 146 340 l 14 78 l 197 78 l 349 340 l 197 614 z "},"ﬁ":{"ha":849,"x_min":0,"x_max":0,"o":"m 108 0 l 313 0 l 313 556 l 442 556 l 442 701 l 313 701 l 313 783 b 417 875 313 819 313 875 b 460 871 433 875 439 874 l 460 1014 b 349 1021 403 1021 364 1021 b 108 797 149 1021 108 921 l 108 701 l 3 701 l 3 556 l 108 556 z m 546 824 l 765 824 l 765 1003 l 546 1003 z m 553 0 l 758 0 l 758 703 l 553 703 z "},"ﬂ":{"ha":849,"x_min":0,"x_max":0,"o":"m 111 0 l 315 0 l 315 556 l 446 556 l 446 701 l 315 701 l 315 783 b 421 875 315 819 315 875 b 463 871 438 875 443 874 l 463 1014 b 353 1021 406 1021 367 1021 b 111 797 153 1021 111 921 l 111 701 l 7 701 l 7 556 l 111 556 z m 553 0 l 758 0 l 758 1004 l 553 1004 z "},"–":{"ha":694,"x_min":0,"x_max":0,"o":"m 0 296 l 694 296 l 694 431 l 0 431 z "},"†":{"ha":772,"x_min":0,"x_max":0,"o":"m 297 646 l 297 0 l 467 0 l 467 646 l 685 646 l 685 785 l 467 785 l 467 1003 l 297 1003 l 297 785 l 74 785 l 74 646 z "},"‡":{"ha":772,"x_min":0,"x_max":0,"o":"m 467 794 l 467 1003 l 297 1003 l 297 794 l 74 794 l 74 660 l 297 660 l 297 347 l 78 347 l 78 213 l 297 213 l 297 0 l 467 0 l 467 213 l 688 213 l 688 347 l 467 347 l 467 660 l 688 660 l 688 794 z "},"·":{"ha":386,"x_min":0,"x_max":0,"o":"m 103 296 l 279 296 l 279 481 l 103 481 z "},"¶":{"ha":772,"x_min":0,"x_max":0,"o":"m 793 846 l 793 989 l 336 989 b -31 642 74 989 -31 810 b 67 399 -31 576 -15 472 b 243 331 129 342 196 335 l 243 -260 l 417 -260 l 417 846 l 549 846 l 549 -260 l 722 -260 l 722 846 z "},"•":{"ha":486,"x_min":0,"x_max":0,"o":"m 243 753 b -8 503 106 753 -8 643 b 243 251 -8 364 104 251 b 494 503 382 251 494 364 b 243 753 494 643 381 753 z "},"‚":{"ha":386,"x_min":0,"x_max":0,"o":"m 142 185 l 39 -157 l 182 -157 l 347 185 z "},"„":{"ha":772,"x_min":0,"x_max":0,"o":"m 238 -157 l 392 185 l 193 185 l 94 -157 z m 514 -157 l 668 185 l 469 185 l 371 -157 z "},"”":{"ha":772,"x_min":0,"x_max":0,"o":"m 93 660 l 238 660 l 394 1003 l 192 1003 z m 365 660 l 510 660 l 665 1003 l 463 1003 z "},"»":{"ha":772,"x_min":0,"x_max":0,"o":"m 228 78 l 379 340 l 228 614 l 44 614 l 176 340 l 44 78 z m 565 78 l 717 340 l 565 614 l 382 614 l 514 340 l 382 78 z "},"…":{"ha":1389,"x_min":0,"x_max":0,"o":"m 163 0 l 339 0 l 339 185 l 163 185 z m 607 0 l 783 0 l 783 185 l 607 185 z m 1051 0 l 1228 0 l 1228 185 l 1051 185 z "},"‰":{"ha":1389,"x_min":0,"x_max":0,"o":"m 707 465 b 514 224 557 465 514 358 b 710 -12 514 94 560 -12 b 904 243 899 -12 904 160 b 707 465 904 378 849 465 z m 710 94 b 653 218 660 94 653 143 b 713 360 653 299 657 360 b 769 229 763 360 769 303 b 710 94 769 133 756 94 z m 1174 465 b 981 224 1024 465 981 358 b 1178 -12 981 94 1028 -12 b 1372 243 1367 -12 1372 160 b 1174 465 1372 378 1317 465 z m 1178 94 b 1119 218 1128 94 1119 143 b 1179 360 1119 299 1125 360 b 1236 229 1231 360 1236 303 b 1178 94 1236 133 1224 94 z m 204 999 b 11 758 54 999 11 893 b 208 521 11 628 58 521 b 401 778 397 521 401 693 b 204 999 401 913 347 999 z m 208 628 b 150 751 158 628 150 678 b 210 894 150 832 156 894 b 267 763 261 894 267 836 b 208 628 267 667 254 628 z m 210 -22 l 800 1010 l 699 1010 l 106 -22 z "},"¿":{"ha":694,"x_min":0,"x_max":0,"o":"m 332 508 l 332 396 b 247 263 332 350 322 329 l 169 192 b 96 103 154 178 139 164 b 58 -29 60 51 58 -3 b 389 -289 58 -215 224 -289 b 622 -262 499 -289 571 -275 l 622 -117 b 438 -150 546 -137 501 -150 b 271 -12 283 -150 271 -46 b 376 189 271 57 321 125 l 438 257 b 489 379 489 315 489 349 l 489 508 z m 493 733 l 326 733 l 326 567 l 493 567 z "},"`":{"ha":386,"x_min":0,"x_max":0,"o":"m 178 1014 l -17 1014 l 176 813 l 294 813 z "},"´":{"ha":386,"x_min":0,"x_max":0,"o":"m 401 1014 l 215 1014 l 100 813 l 211 813 z "},"ˆ":{"ha":386,"x_min":0,"x_max":0,"o":"m -31 813 l 94 813 l 192 931 l 286 813 l 410 813 l 265 1014 l 122 1014 z "},"˜":{"ha":386,"x_min":0,"x_max":0,"o":"m 14 824 b 88 886 32 876 64 886 b 150 872 106 886 133 878 l 210 850 b 282 835 225 844 251 835 b 382 875 329 835 361 854 b 438 1004 421 911 432 954 l 367 1004 b 301 940 360 969 342 940 b 254 949 278 940 263 946 l 175 979 b 106 994 172 981 135 994 b -58 824 22 994 -43 926 z "},"¯":{"ha":386,"x_min":0,"x_max":0,"o":"m 425 867 l 425 961 l -50 961 l -50 867 z "},"˘":{"ha":386,"x_min":0,"x_max":0,"o":"m -19 1014 b 18 889 -18 982 -17 933 b 188 813 56 839 118 813 b 403 1014 324 813 396 904 l 318 1014 b 189 903 308 976 288 903 b 65 1014 144 903 79 922 z "},"˙":{"ha":386,"x_min":0,"x_max":0,"o":"m 122 832 l 264 832 l 264 996 l 122 996 z "},"¨":{"ha":386,"x_min":0,"x_max":0,"o":"m 239 832 l 381 832 l 381 996 l 239 996 z m 0 832 l 142 832 l 142 996 l 0 996 z "},"˚":{"ha":386,"x_min":0,"x_max":0,"o":"m 193 1056 b 53 914 115 1056 53 992 b 193 772 53 835 117 772 b 333 914 272 772 333 838 b 193 1056 333 990 274 1056 z m 193 989 b 268 914 236 989 268 954 b 193 840 268 874 235 840 b 119 914 153 840 119 874 b 193 989 119 956 153 989 z "},"¸":{"ha":386,"x_min":0,"x_max":0,"o":"m 21 -271 b 156 -301 39 -279 92 -301 b 331 -175 219 -301 331 -276 b 214 -75 331 -137 306 -75 b 165 -81 192 -75 181 -78 l 232 8 l 167 8 l 78 -117 l 106 -146 b 163 -133 119 -140 136 -133 b 224 -185 210 -133 224 -165 b 147 -237 224 -215 194 -237 b 50 -212 118 -237 82 -226 z "},"˝":{"ha":772,"x_min":0,"x_max":0,"o":"m 467 1014 l 281 1014 l 164 813 l 275 813 z m 724 1014 l 538 1014 l 421 813 l 532 813 z "},"˛":{"ha":386,"x_min":0,"x_max":0,"o":"m 322 -204 b 265 -221 307 -212 293 -221 b 181 -135 254 -221 181 -221 b 285 1 181 -74 226 -39 l 225 1 b 60 -197 131 -42 60 -115 b 193 -301 60 -257 107 -301 b 322 -265 258 -301 296 -281 z "},"ˇ":{"ha":386,"x_min":0,"x_max":0,"o":"m 293 1014 l 196 888 l 99 1014 l -32 1014 l 113 813 l 275 813 l 422 1014 z "},"—":{"ha":1389,"x_min":0,"x_max":0,"o":"m 181 296 l 1208 296 l 1208 431 l 181 431 z "},"Æ":{"ha":1389,"x_min":0,"x_max":0,"o":"m -11 0 l 221 0 l 331 218 l 708 218 l 739 0 l 1317 0 l 1317 167 l 936 167 l 897 431 l 1279 431 l 1279 592 l 875 592 l 839 839 l 1304 839 l 1304 1001 l 544 1001 z m 415 376 l 629 813 l 688 376 z "},"ª":{"ha":464,"x_min":0,"x_max":0,"o":"m 442 544 b 431 651 435 575 431 619 l 431 821 b 236 978 431 908 388 978 b 47 844 158 978 47 954 l 178 844 b 239 906 178 894 215 906 b 304 814 304 906 304 851 b 138 797 264 814 199 814 b 26 660 68 776 26 721 b 181 535 26 607 58 535 b 317 603 264 535 296 574 b 321 544 317 589 317 572 z m 304 743 b 224 615 304 703 303 615 b 157 674 183 615 157 640 b 304 743 157 728 222 749 z "},"Ł":{"ha":772,"x_min":0,"x_max":0,"o":"m 96 0 l 746 0 l 746 171 l 315 171 l 315 525 l 558 665 l 558 810 l 315 668 l 315 1003 l 96 1003 l 97 544 l 4 489 l 4 349 l 96 401 z "},"Ø":{"ha":1081,"x_min":0,"x_max":0,"o":"m 856 922 b 538 1025 768 997 653 1025 b 56 488 142 1025 56 706 b 146 154 56 369 78 250 l 3 0 l 69 -65 l 208 85 b 539 -25 299 7 419 -25 b 1018 507 808 -25 1018 146 b 919 853 1018 631 993 754 l 1051 997 l 986 1063 z m 303 326 b 282 494 296 349 282 397 b 324 742 282 551 289 668 b 538 875 368 832 451 875 b 726 783 569 875 663 869 z m 771 693 b 793 518 788 638 793 576 b 539 132 793 307 735 132 b 344 231 410 132 363 203 z "},"Œ":{"ha":1389,"x_min":0,"x_max":0,"o":"m 1321 1003 l 656 1003 b 343 974 503 1003 450 1003 b 44 490 146 919 44 715 b 172 128 44 414 58 240 b 656 0 300 0 471 0 l 1338 0 l 1338 167 l 910 167 l 910 431 l 1308 431 l 1308 592 l 911 592 l 911 842 l 1321 842 z m 694 154 b 267 485 494 149 267 146 b 414 817 267 632 307 767 b 694 853 481 849 540 853 z "},"º":{"ha":510,"x_min":0,"x_max":0,"o":"m 19 751 b 253 529 19 649 78 529 b 492 754 414 529 492 633 b 256 975 492 879 414 975 b 19 751 107 975 19 886 z m 157 750 b 257 893 157 806 165 893 b 356 757 329 893 356 840 b 256 615 356 657 322 615 b 157 750 189 615 157 660 z "},"æ":{"ha":1235,"x_min":0,"x_max":0,"o":"m 971 217 b 856 111 963 182 946 111 b 736 183 814 111 761 131 b 713 321 713 231 713 294 l 1182 321 b 1129 586 1182 376 1185 497 b 869 722 1075 672 983 722 b 622 613 714 722 651 647 b 372 722 596 644 533 722 b 90 504 225 722 104 668 l 289 504 b 397 603 293 581 349 603 b 514 440 492 603 518 531 b 175 394 401 439 265 439 b 53 193 63 340 53 235 b 322 -26 53 68 139 -26 b 603 108 482 -26 553 49 b 871 -21 624 76 688 -21 b 1104 71 958 -21 1049 4 b 1164 217 1151 128 1160 183 z m 711 440 b 849 600 714 475 726 600 b 969 440 968 600 969 476 z m 513 321 b 485 179 510 279 506 221 b 360 106 457 124 399 106 b 251 203 306 106 251 140 b 451 324 251 324 413 324 b 513 321 474 324 493 324 z "},"ı":{"ha":386,"x_min":0,"x_max":0,"o":"m 90 0 l 296 0 l 296 703 l 90 703 z "},"ł":{"ha":386,"x_min":0,"x_max":0,"o":"m 90 0 l 296 0 l 296 532 l 369 576 l 369 722 l 296 676 l 296 1004 l 90 1004 l 90 551 l 17 506 l 17 363 l 90 407 z "},"ø":{"ha":849,"x_min":0,"x_max":0,"o":"m 750 760 l 647 654 b 418 717 581 700 499 717 b 57 343 194 717 57 572 b 124 117 57 217 100 151 l 13 -3 l 69 -50 l 174 58 b 421 -22 207 29 265 -22 b 782 349 671 -22 782 146 b 703 603 782 503 729 569 l 807 711 z m 275 271 b 269 353 272 289 269 315 b 421 581 269 403 271 581 b 531 535 435 581 489 581 z m 564 458 b 572 343 568 436 572 399 b 419 118 572 247 560 118 b 300 188 340 118 314 163 z "},"œ":{"ha":1311,"x_min":0,"x_max":0,"o":"m 1056 217 b 936 106 1040 140 997 106 b 794 304 817 106 794 221 l 1260 304 b 1211 579 1260 369 1261 496 b 939 721 1136 701 1011 721 b 683 589 768 721 707 626 b 414 718 656 625 586 718 b 58 347 278 718 58 646 b 408 -25 58 171 140 -25 b 683 104 515 -25 600 3 b 946 -24 731 44 786 -24 b 1151 38 1001 -24 1085 -14 b 1249 217 1210 83 1238 140 z m 794 432 b 935 592 806 540 860 592 b 1056 432 1054 592 1056 483 z m 424 111 b 267 347 318 111 267 186 b 425 585 267 469 299 585 b 586 361 586 585 586 419 b 424 111 586 263 575 111 z "},"ß":{"ha":926,"x_min":0,"x_max":0,"o":"m 82 0 l 283 0 l 283 729 b 310 843 283 754 283 806 b 433 903 321 858 357 903 b 540 817 504 903 540 863 b 485 728 540 778 515 754 b 381 553 397 656 381 607 b 494 403 381 476 419 447 l 603 338 b 682 214 668 299 682 258 b 604 115 682 143 639 115 b 554 136 586 115 567 122 b 532 200 540 150 532 172 l 350 200 b 596 -22 364 -11 510 -22 b 875 231 681 -22 875 -10 b 749 442 875 361 807 408 l 640 507 b 575 579 582 540 575 560 b 618 644 575 617 597 631 b 746 822 722 713 746 757 b 424 1031 746 972 576 1031 b 201 983 346 1031 268 1022 b 82 749 179 971 82 910 z "},"¹":{"ha":463,"x_min":0,"x_max":0,"o":"m 67 768 b 214 843 110 783 165 811 l 214 390 l 350 390 l 350 972 l 233 972 b 67 885 211 957 146 915 z "},"¬":{"ha":811,"x_min":0,"x_max":0,"o":"m 33 442 l 588 442 l 588 118 l 774 118 l 774 622 l 33 622 z "},"µ":{"ha":849,"x_min":0,"x_max":0,"o":"m 97 -294 l 272 -294 l 272 57 b 413 -12 292 32 325 -12 b 571 83 508 -12 549 49 l 571 0 l 724 0 l 724 701 l 544 701 l 544 358 b 408 136 544 264 540 136 b 276 363 288 136 276 233 l 276 701 l 99 701 z "},"™":{"ha":1389,"x_min":0,"x_max":0,"o":"m 618 503 l 714 503 l 714 933 l 843 503 l 929 503 l 1060 933 l 1060 503 l 1163 503 l 1163 1004 l 999 1004 l 889 638 l 788 1004 l 618 1004 z m 293 503 l 399 503 l 399 921 l 574 921 l 574 1004 l 117 1004 l 117 921 l 293 921 z "},"Ð":{"ha":1003,"x_min":0,"x_max":0,"o":"m 90 0 l 403 0 b 583 11 504 0 546 4 b 939 515 774 46 939 207 b 768 910 939 658 894 817 b 422 1000 647 999 478 1000 l 90 1001 l 90 611 l 0 611 l 0 490 l 90 490 z m 308 490 l 510 490 l 510 611 l 308 611 l 308 839 b 533 825 432 844 489 838 b 717 515 668 788 717 657 b 626 232 717 467 711 317 b 393 163 564 169 485 163 b 308 165 368 163 332 164 z "},"½":{"ha":1158,"x_min":0,"x_max":0,"o":"m 194 -39 l 308 -39 l 888 1007 l 774 1007 z m 31 768 b 178 843 74 783 129 811 l 178 390 l 314 390 l 314 972 l 197 972 b 31 885 175 957 110 915 z m 831 417 b 914 501 833 461 857 501 b 986 431 957 501 986 469 b 961 367 986 415 982 394 b 849 254 929 326 893 292 l 685 118 l 685 0 l 1126 0 l 1126 96 b 825 90 1026 94 897 93 b 996 231 890 140 938 175 b 1122 431 1097 326 1122 365 b 911 589 1122 524 1042 589 b 731 525 846 589 771 572 b 693 417 693 483 693 440 z "},"±":{"ha":811,"x_min":0,"x_max":0,"o":"m 313 182 l 499 182 l 499 389 l 775 389 l 775 569 l 499 569 l 499 786 l 313 786 l 313 569 l 36 569 l 36 389 l 313 389 z m 36 -46 l 775 -46 l 775 135 l 36 135 z "},"Þ":{"ha":849,"x_min":0,"x_max":0,"o":"m 90 0 l 308 0 l 308 236 l 444 236 b 682 283 504 236 614 236 b 810 547 768 342 810 443 b 732 757 810 642 782 707 b 400 849 650 840 533 849 l 303 849 l 303 1001 l 90 1001 z m 303 685 l 411 685 b 588 550 469 685 588 685 b 519 417 588 506 571 446 b 389 396 485 396 421 396 l 303 396 z "},"¼":{"ha":1158,"x_min":0,"x_max":0,"o":"m 924 126 l 924 0 l 1060 0 l 1060 126 l 1147 126 l 1147 222 l 1061 222 l 1064 582 l 928 582 l 675 239 l 675 126 z m 936 438 l 931 219 l 776 219 z m 197 -39 l 311 -39 l 890 1007 l 775 1007 z m 13 768 b 160 843 56 783 111 811 l 160 390 l 296 390 l 296 972 l 179 972 b 13 885 157 957 92 915 z "},"÷":{"ha":811,"x_min":0,"x_max":0,"o":"m 29 281 l 769 281 l 769 460 l 29 460 z m 296 6 l 503 6 l 503 210 l 296 210 z m 296 531 l 503 531 l 503 735 l 296 735 z "},"¦":{"ha":386,"x_min":0,"x_max":0,"o":"m 101 938 l 101 451 l 285 451 l 285 938 z m 101 243 l 101 -243 l 285 -243 l 285 243 z "},"°":{"ha":556,"x_min":0,"x_max":0,"o":"m 275 983 b 40 749 147 983 40 879 b 275 514 40 618 146 514 b 510 749 406 514 510 618 b 275 983 510 879 404 983 z m 275 840 b 368 749 326 840 368 799 b 275 657 368 699 328 657 b 183 749 225 657 183 697 b 275 840 183 800 226 840 z "},"þ":{"ha":849,"x_min":0,"x_max":0,"o":"m 58 1004 l 58 -269 l 267 -269 l 267 81 b 465 -10 286 54 338 -10 b 769 364 663 -10 769 163 b 478 715 769 572 665 715 b 267 601 444 715 329 714 l 267 1004 z m 411 125 b 258 344 271 125 258 272 b 304 526 258 429 275 486 b 417 583 328 560 371 583 b 560 357 549 583 560 415 b 411 125 560 283 540 125 z "},"¾":{"ha":1158,"x_min":0,"x_max":0,"o":"m 907 126 l 907 0 l 1044 0 l 1044 126 l 1131 126 l 1131 222 l 1044 222 l 1049 582 l 911 582 l 658 239 l 658 126 z m 910 438 b 908 374 908 428 908 382 l 904 219 l 750 219 z m 258 -39 l 372 -39 l 950 1007 l 836 1007 z m 33 549 b 71 436 33 522 35 478 b 243 378 118 381 217 378 b 471 550 372 378 471 450 b 344 689 471 610 439 663 b 465 821 374 697 465 724 b 256 979 465 893 400 979 b 78 915 163 979 104 944 b 42 817 47 882 44 843 l 178 817 b 256 889 178 858 210 889 b 335 819 297 889 335 865 b 178 733 335 742 247 735 l 178 636 b 332 550 250 636 332 636 b 253 471 332 492 290 471 b 169 549 178 471 172 531 z "},"²":{"ha":463,"x_min":0,"x_max":0,"o":"m 156 813 b 238 897 158 857 182 897 b 311 826 282 897 311 865 b 286 763 311 811 307 790 b 172 650 254 721 218 688 l 10 513 l 10 396 l 451 396 l 451 492 b 150 486 351 490 222 488 b 321 626 215 535 263 571 b 447 826 422 721 447 760 b 236 985 447 919 367 985 b 54 921 169 985 96 967 b 18 813 18 878 18 836 z "},"®":{"ha":1111,"x_min":0,"x_max":0,"o":"m 556 1025 b 31 500 275 1025 31 797 b 556 -25 31 208 269 -25 b 1081 500 844 -25 1081 211 b 556 1025 1081 797 839 1025 z m 554 940 b 996 501 796 940 996 746 b 554 60 996 261 799 60 b 115 501 313 60 115 257 b 554 940 115 749 315 940 z m 358 206 l 472 206 l 472 442 l 575 442 b 636 392 617 442 628 425 b 658 206 636 383 656 233 l 783 206 b 753 361 767 233 758 314 b 656 494 742 436 736 489 b 767 639 697 508 767 531 b 561 794 767 794 631 794 l 358 794 z m 469 700 l 564 700 b 650 619 594 700 650 700 b 561 536 650 589 636 536 l 469 536 z "},"−":{"ha":811,"x_min":0,"x_max":0,"o":"m 36 281 l 775 281 l 775 460 l 36 460 z "},"ð":{"ha":849,"x_min":0,"x_max":0,"o":"m 172 783 l 233 736 l 361 824 b 572 610 483 743 532 676 b 389 674 546 631 489 674 b 67 328 256 674 67 588 b 189 44 67 218 101 108 b 422 -19 258 -8 349 -19 b 783 386 681 -19 783 156 b 504 921 783 700 604 847 l 610 992 l 549 1039 l 439 964 b 265 1051 413 979 374 1003 l 156 926 b 292 865 222 900 256 883 z m 429 113 b 275 328 306 113 275 219 b 429 556 275 369 275 556 b 579 342 567 556 579 413 b 429 113 579 244 560 113 z "},"×":{"ha":811,"x_min":0,"x_max":0,"o":"m 46 138 l 174 10 l 406 243 l 638 10 l 765 138 l 533 369 l 765 603 l 638 731 l 406 497 l 174 731 l 46 603 l 278 369 z "},"³":{"ha":463,"x_min":0,"x_max":0,"o":"m 8 549 b 46 436 8 522 10 478 b 218 378 93 381 192 378 b 446 550 347 378 446 450 b 319 689 446 610 414 663 b 440 821 349 697 440 724 b 231 979 440 893 375 979 b 53 915 138 979 79 944 b 17 817 22 882 19 843 l 154 817 b 231 889 153 858 185 889 b 310 819 272 889 310 865 b 154 733 310 742 222 735 l 154 636 b 308 550 225 636 308 636 b 228 471 308 492 265 471 b 146 549 153 471 147 531 z "},"©":{"ha":1111,"x_min":0,"x_max":0,"o":"m 553 1025 b 29 500 268 1025 29 794 b 553 -25 29 210 264 -25 b 1078 500 843 -25 1078 210 b 553 1025 1078 794 839 1025 z m 553 939 b 993 500 794 939 993 743 b 553 61 993 260 797 61 b 114 500 310 61 114 258 b 553 939 114 744 313 939 z m 807 610 b 567 811 806 732 707 811 b 272 492 386 811 272 683 b 567 188 272 339 347 188 b 750 251 632 188 697 203 b 813 397 806 304 810 364 l 667 397 b 556 283 664 315 607 283 b 415 497 415 283 415 461 b 561 717 415 535 415 717 b 665 610 654 717 664 631 z "},"Á":{"ha":1003,"x_min":0,"x_max":0,"o":"m 369 1004 l 7 0 l 213 0 l 288 217 l 685 217 l 757 0 l 974 0 l 625 1004 z m 343 379 l 492 807 l 631 379 z m 710 1275 l 524 1275 l 408 1074 l 519 1074 z "},"Â":{"ha":1003,"x_min":0,"x_max":0,"o":"m 369 1004 l 7 0 l 213 0 l 288 217 l 685 217 l 757 0 l 974 0 l 625 1004 z m 343 379 l 492 807 l 631 379 z m 278 1074 l 403 1074 l 500 1192 l 594 1074 l 718 1074 l 574 1275 l 431 1275 z "},"Ä":{"ha":1003,"x_min":0,"x_max":0,"o":"m 369 1004 l 7 0 l 213 0 l 288 217 l 685 217 l 757 0 l 974 0 l 625 1004 z m 343 379 l 492 807 l 631 379 z m 547 1079 l 689 1079 l 689 1243 l 547 1243 z m 308 1079 l 450 1079 l 450 1243 l 308 1243 z "},"À":{"ha":1003,"x_min":0,"x_max":0,"o":"m 369 1004 l 7 0 l 213 0 l 288 217 l 685 217 l 757 0 l 974 0 l 625 1004 z m 343 379 l 492 807 l 631 379 z m 486 1275 l 292 1275 l 485 1074 l 603 1074 z "},"Å":{"ha":1003,"x_min":0,"x_max":0,"o":"m 369 1004 l 7 0 l 213 0 l 288 217 l 685 217 l 757 0 l 974 0 l 625 1004 z m 343 379 l 492 807 l 631 379 z m 501 1303 b 361 1161 424 1303 361 1239 b 501 1019 361 1082 425 1019 b 642 1161 581 1019 642 1085 b 501 1303 642 1238 582 1303 z m 501 1236 b 576 1161 544 1236 576 1201 b 501 1088 576 1121 543 1088 b 428 1161 461 1088 428 1121 b 501 1236 428 1203 461 1236 z "},"Ã":{"ha":1003,"x_min":0,"x_max":0,"o":"m 369 1004 l 7 0 l 213 0 l 288 217 l 685 217 l 757 0 l 974 0 l 625 1004 z m 343 379 l 492 807 l 631 379 z m 322 1085 b 396 1147 340 1138 372 1147 b 458 1133 414 1147 442 1139 l 518 1111 b 590 1096 533 1106 560 1096 b 690 1136 638 1096 669 1115 b 746 1265 729 1172 740 1215 l 675 1265 b 610 1201 668 1231 650 1201 b 563 1210 586 1201 571 1207 l 483 1240 b 414 1256 481 1242 443 1256 b 250 1085 331 1256 265 1188 z "},"Ç":{"ha":926,"x_min":0,"x_max":0,"o":"m 663 325 b 482 135 658 192 572 135 b 272 479 272 135 272 419 b 499 853 272 686 339 853 b 661 676 644 853 657 711 l 881 676 b 507 1010 881 876 726 1010 b 47 481 225 1010 47 799 b 169 107 47 368 68 222 b 444 -19 229 40 315 -7 l 372 -122 l 400 -151 b 457 -139 414 -146 431 -139 b 519 -190 504 -139 519 -171 b 442 -243 519 -221 489 -243 b 344 -218 413 -243 378 -232 l 315 -276 b 450 -307 333 -285 386 -307 b 625 -181 514 -307 625 -282 b 510 -81 625 -143 601 -81 b 460 -86 486 -81 475 -83 l 507 -24 b 735 36 551 -24 646 -19 b 889 325 876 126 885 256 z "},"É":{"ha":849,"x_min":0,"x_max":0,"o":"m 103 0 l 790 0 l 790 167 l 318 167 l 318 438 l 746 438 l 746 601 l 318 601 l 318 840 l 775 840 l 775 1004 l 103 1004 z m 633 1275 l 447 1275 l 332 1074 l 443 1074 z "},"Ê":{"ha":849,"x_min":0,"x_max":0,"o":"m 103 0 l 790 0 l 790 167 l 318 167 l 318 438 l 746 438 l 746 601 l 318 601 l 318 840 l 775 840 l 775 1004 l 103 1004 z m 201 1074 l 326 1074 l 424 1192 l 518 1074 l 642 1074 l 497 1275 l 354 1275 z "},"Ë":{"ha":849,"x_min":0,"x_max":0,"o":"m 103 0 l 790 0 l 790 167 l 318 167 l 318 438 l 746 438 l 746 601 l 318 601 l 318 840 l 775 840 l 775 1004 l 103 1004 z m 471 1079 l 613 1079 l 613 1243 l 471 1243 z m 232 1079 l 374 1079 l 374 1243 l 232 1243 z "},"È":{"ha":849,"x_min":0,"x_max":0,"o":"m 103 0 l 790 0 l 790 167 l 318 167 l 318 438 l 746 438 l 746 601 l 318 601 l 318 840 l 775 840 l 775 1004 l 103 1004 z m 410 1275 l 215 1275 l 408 1074 l 526 1074 z "},"Í":{"ha":386,"x_min":0,"x_max":0,"o":"m 83 0 l 299 0 l 299 1007 l 83 1007 z m 401 1275 l 215 1275 l 100 1074 l 211 1074 z "},"Î":{"ha":386,"x_min":0,"x_max":0,"o":"m 83 0 l 299 0 l 299 1007 l 83 1007 z m -31 1074 l 94 1074 l 192 1192 l 286 1074 l 410 1074 l 265 1275 l 122 1275 z "},"Ï":{"ha":386,"x_min":0,"x_max":0,"o":"m 83 0 l 299 0 l 299 1007 l 83 1007 z m 239 1079 l 381 1079 l 381 1243 l 239 1243 z m 0 1079 l 142 1079 l 142 1243 l 0 1243 z "},"Ì":{"ha":386,"x_min":0,"x_max":0,"o":"m 83 0 l 299 0 l 299 1007 l 83 1007 z m 178 1275 l -17 1275 l 176 1074 l 294 1074 z "},"Ñ":{"ha":1081,"x_min":0,"x_max":0,"o":"m 100 0 l 303 0 l 303 833 l 692 0 l 988 0 l 988 1004 l 788 1004 l 788 214 l 411 1004 l 100 1004 z m 361 1085 b 435 1147 379 1138 411 1147 b 497 1133 453 1147 481 1139 l 557 1111 b 629 1096 572 1106 599 1096 b 729 1136 676 1096 708 1115 b 785 1265 768 1172 779 1215 l 714 1265 b 649 1201 707 1231 689 1201 b 601 1210 625 1201 610 1207 l 522 1240 b 453 1256 519 1242 482 1256 b 289 1085 369 1256 304 1188 z "},"Ó":{"ha":1081,"x_min":0,"x_max":0,"o":"m 58 488 b 182 113 58 396 72 229 b 538 -25 274 17 406 -25 b 894 118 621 -25 783 -7 b 1021 511 976 210 1021 365 b 893 889 1021 610 1000 767 b 540 1025 794 1000 647 1025 b 58 488 179 1025 58 754 z m 283 494 b 357 786 283 608 300 717 b 542 871 397 838 461 871 b 771 693 644 871 729 817 b 796 514 792 632 796 563 b 728 226 796 354 761 276 b 540 133 688 164 628 133 b 358 214 440 133 389 172 b 283 494 299 292 283 399 z m 749 1275 l 563 1275 l 447 1074 l 558 1074 z "},"Ô":{"ha":1081,"x_min":0,"x_max":0,"o":"m 58 488 b 182 113 58 396 72 229 b 538 -25 274 17 406 -25 b 894 118 621 -25 783 -7 b 1021 511 976 210 1021 365 b 893 889 1021 610 1000 767 b 540 1025 794 1000 647 1025 b 58 488 179 1025 58 754 z m 283 494 b 357 786 283 608 300 717 b 542 871 397 838 461 871 b 771 693 644 871 729 817 b 796 514 792 632 796 563 b 728 226 796 354 761 276 b 540 133 688 164 628 133 b 358 214 440 133 389 172 b 283 494 299 292 283 399 z m 317 1074 l 442 1074 l 539 1192 l 633 1074 l 757 1074 l 613 1275 l 469 1275 z "},"Ö":{"ha":1081,"x_min":0,"x_max":0,"o":"m 58 488 b 182 113 58 396 72 229 b 538 -25 274 17 406 -25 b 894 118 621 -25 783 -7 b 1021 511 976 210 1021 365 b 893 889 1021 610 1000 767 b 540 1025 794 1000 647 1025 b 58 488 179 1025 58 754 z m 283 494 b 357 786 283 608 300 717 b 542 871 397 838 461 871 b 771 693 644 871 729 817 b 796 514 792 632 796 563 b 728 226 796 354 761 276 b 540 133 688 164 628 133 b 358 214 440 133 389 172 b 283 494 299 292 283 399 z m 586 1079 l 728 1079 l 728 1243 l 586 1243 z m 347 1079 l 489 1079 l 489 1243 l 347 1243 z "},"Ò":{"ha":1081,"x_min":0,"x_max":0,"o":"m 58 488 b 182 113 58 396 72 229 b 538 -25 274 17 406 -25 b 894 118 621 -25 783 -7 b 1021 511 976 210 1021 365 b 893 889 1021 610 1000 767 b 540 1025 794 1000 647 1025 b 58 488 179 1025 58 754 z m 283 494 b 357 786 283 608 300 717 b 542 871 397 838 461 871 b 771 693 644 871 729 817 b 796 514 792 632 796 563 b 728 226 796 354 761 276 b 540 133 688 164 628 133 b 358 214 440 133 389 172 b 283 494 299 292 283 399 z m 525 1275 l 331 1275 l 524 1074 l 642 1074 z "},"Õ":{"ha":1081,"x_min":0,"x_max":0,"o":"m 58 488 b 182 113 58 396 72 229 b 538 -25 274 17 406 -25 b 894 118 621 -25 783 -7 b 1021 511 976 210 1021 365 b 893 889 1021 610 1000 767 b 540 1025 794 1000 647 1025 b 58 488 179 1025 58 754 z m 283 494 b 357 786 283 608 300 717 b 542 871 397 838 461 871 b 771 693 644 871 729 817 b 796 514 792 632 796 563 b 728 226 796 354 761 276 b 540 133 688 164 628 133 b 358 214 440 133 389 172 b 283 494 299 292 283 399 z m 361 1085 b 435 1147 379 1138 411 1147 b 497 1133 453 1147 481 1139 l 557 1111 b 629 1096 572 1106 599 1096 b 729 1136 676 1096 708 1115 b 785 1265 768 1172 779 1215 l 714 1265 b 649 1201 707 1231 689 1201 b 601 1210 625 1201 610 1207 l 522 1240 b 453 1256 519 1242 482 1256 b 289 1085 369 1256 304 1188 z "},"Š":{"ha":926,"x_min":0,"x_max":0,"o":"m 49 321 b 438 -24 50 224 53 -24 b 865 303 715 -24 865 122 b 521 588 865 499 694 546 b 303 733 376 624 303 640 b 468 869 303 815 368 869 b 631 717 617 869 628 751 l 838 717 b 781 903 838 750 838 831 b 478 1021 706 997 582 1021 b 81 710 199 1021 81 875 b 450 406 81 536 211 465 b 640 271 578 375 640 360 b 450 131 640 186 567 131 b 268 321 265 131 268 274 z m 564 1275 l 467 1149 l 369 1275 l 239 1275 l 383 1074 l 546 1074 l 693 1275 z "},"Ú":{"ha":1081,"x_min":0,"x_max":0,"o":"m 100 1001 l 100 401 b 151 154 100 308 103 231 b 529 -19 246 3 429 -19 b 969 375 732 -19 969 76 l 969 1001 l 760 1001 l 760 401 b 728 231 760 300 749 261 b 533 143 672 144 568 143 b 315 390 324 143 315 281 l 315 1001 z m 749 1275 l 563 1275 l 447 1074 l 558 1074 z "},"Û":{"ha":1081,"x_min":0,"x_max":0,"o":"m 100 1001 l 100 401 b 151 154 100 308 103 231 b 529 -19 246 3 429 -19 b 969 375 732 -19 969 76 l 969 1001 l 760 1001 l 760 401 b 728 231 760 300 749 261 b 533 143 672 144 568 143 b 315 390 324 143 315 281 l 315 1001 z m 317 1074 l 442 1074 l 539 1192 l 633 1074 l 757 1074 l 613 1275 l 469 1275 z "},"Ü":{"ha":1081,"x_min":0,"x_max":0,"o":"m 100 1001 l 100 401 b 151 154 100 308 103 231 b 529 -19 246 3 429 -19 b 969 375 732 -19 969 76 l 969 1001 l 760 1001 l 760 401 b 728 231 760 300 749 261 b 533 143 672 144 568 143 b 315 390 324 143 315 281 l 315 1001 z m 586 1079 l 728 1079 l 728 1243 l 586 1243 z m 347 1079 l 489 1079 l 489 1243 l 347 1243 z "},"Ù":{"ha":1081,"x_min":0,"x_max":0,"o":"m 100 1001 l 100 401 b 151 154 100 308 103 231 b 529 -19 246 3 429 -19 b 969 375 732 -19 969 76 l 969 1001 l 760 1001 l 760 401 b 728 231 760 300 749 261 b 533 143 672 144 568 143 b 315 390 324 143 315 281 l 315 1001 z m 525 1275 l 331 1275 l 524 1074 l 642 1074 z "},"Ý":{"ha":926,"x_min":0,"x_max":0,"o":"m 22 1000 l 361 368 l 361 0 l 574 0 l 574 365 l 913 1000 l 692 1000 l 481 543 l 274 1000 z m 672 1275 l 486 1275 l 371 1074 l 482 1074 z "},"Ÿ":{"ha":926,"x_min":0,"x_max":0,"o":"m 22 1000 l 361 368 l 361 0 l 574 0 l 574 365 l 913 1000 l 692 1000 l 481 543 l 274 1000 z m 510 1079 l 651 1079 l 651 1243 l 510 1243 z m 271 1079 l 413 1079 l 413 1243 l 271 1243 z "},"Ž":{"ha":849,"x_min":0,"x_max":0,"o":"m 38 0 l 807 0 l 807 165 l 272 157 l 796 810 l 796 1000 l 69 1000 l 69 836 l 563 840 l 38 183 z m 525 1275 l 428 1149 l 331 1275 l 200 1275 l 344 1074 l 507 1074 l 654 1275 z "},"á":{"ha":772,"x_min":0,"x_max":0,"o":"m 697 0 b 681 178 685 58 681 118 l 679 460 b 631 632 679 492 678 575 b 381 722 561 713 439 722 b 168 665 314 722 232 711 b 89 500 94 613 90 538 l 290 500 b 306 563 290 517 290 539 b 383 601 324 589 354 601 b 475 543 403 601 457 594 b 485 450 483 518 485 496 b 207 411 417 450 293 450 b 58 193 78 351 58 249 b 119 39 58 138 78 81 b 294 -17 147 13 193 -17 b 504 96 333 -17 426 -17 b 511 0 504 75 504 43 z m 485 331 b 446 157 485 256 482 201 b 358 117 426 135 396 117 b 258 217 290 117 258 169 b 485 331 258 300 353 342 z m 594 1014 l 408 1014 l 293 813 l 404 813 z "},"â":{"ha":772,"x_min":0,"x_max":0,"o":"m 697 0 b 681 178 685 58 681 118 l 679 460 b 631 632 679 492 678 575 b 381 722 561 713 439 722 b 168 665 314 722 232 711 b 89 500 94 613 90 538 l 290 500 b 306 563 290 517 290 539 b 383 601 324 589 354 601 b 475 543 403 601 457 594 b 485 450 483 518 485 496 b 207 411 417 450 293 450 b 58 193 78 351 58 249 b 119 39 58 138 78 81 b 294 -17 147 13 193 -17 b 504 96 333 -17 426 -17 b 511 0 504 75 504 43 z m 485 331 b 446 157 485 256 482 201 b 358 117 426 135 396 117 b 258 217 290 117 258 169 b 485 331 258 300 353 342 z m 163 813 l 288 813 l 385 931 l 479 813 l 603 813 l 458 1014 l 315 1014 z "},"ä":{"ha":772,"x_min":0,"x_max":0,"o":"m 697 0 b 681 178 685 58 681 118 l 679 460 b 631 632 679 492 678 575 b 381 722 561 713 439 722 b 168 665 314 722 232 711 b 89 500 94 613 90 538 l 290 500 b 306 563 290 517 290 539 b 383 601 324 589 354 601 b 475 543 403 601 457 594 b 485 450 483 518 485 496 b 207 411 417 450 293 450 b 58 193 78 351 58 249 b 119 39 58 138 78 81 b 294 -17 147 13 193 -17 b 504 96 333 -17 426 -17 b 511 0 504 75 504 43 z m 485 331 b 446 157 485 256 482 201 b 358 117 426 135 396 117 b 258 217 290 117 258 169 b 485 331 258 300 353 342 z m 432 832 l 574 832 l 574 996 l 432 996 z m 193 832 l 335 832 l 335 996 l 193 996 z "},"à":{"ha":772,"x_min":0,"x_max":0,"o":"m 697 0 b 681 178 685 58 681 118 l 679 460 b 631 632 679 492 678 575 b 381 722 561 713 439 722 b 168 665 314 722 232 711 b 89 500 94 613 90 538 l 290 500 b 306 563 290 517 290 539 b 383 601 324 589 354 601 b 475 543 403 601 457 594 b 485 450 483 518 485 496 b 207 411 417 450 293 450 b 58 193 78 351 58 249 b 119 39 58 138 78 81 b 294 -17 147 13 193 -17 b 504 96 333 -17 426 -17 b 511 0 504 75 504 43 z m 485 331 b 446 157 485 256 482 201 b 358 117 426 135 396 117 b 258 217 290 117 258 169 b 485 331 258 300 353 342 z m 371 1014 l 176 1014 l 369 813 l 488 813 z "},"å":{"ha":772,"x_min":0,"x_max":0,"o":"m 697 0 b 681 178 685 58 681 118 l 679 460 b 631 632 679 492 678 575 b 381 722 561 713 439 722 b 168 665 314 722 232 711 b 89 500 94 613 90 538 l 290 500 b 306 563 290 517 290 539 b 383 601 324 589 354 601 b 475 543 403 601 457 594 b 485 450 483 518 485 496 b 207 411 417 450 293 450 b 58 193 78 351 58 249 b 119 39 58 138 78 81 b 294 -17 147 13 193 -17 b 504 96 333 -17 426 -17 b 511 0 504 75 504 43 z m 485 331 b 446 157 485 256 482 201 b 358 117 426 135 396 117 b 258 217 290 117 258 169 b 485 331 258 300 353 342 z m 386 1056 b 246 914 308 1056 246 992 b 386 772 246 835 310 772 b 526 914 465 772 526 838 b 386 1056 526 990 467 1056 z m 386 989 b 461 914 429 989 461 954 b 386 840 461 874 428 840 b 313 914 346 840 313 874 b 386 989 313 956 346 989 z "},"ã":{"ha":772,"x_min":0,"x_max":0,"o":"m 697 0 b 681 178 685 58 681 118 l 679 460 b 631 632 679 492 678 575 b 381 722 561 713 439 722 b 168 665 314 722 232 711 b 89 500 94 613 90 538 l 290 500 b 306 563 290 517 290 539 b 383 601 324 589 354 601 b 475 543 403 601 457 594 b 485 450 483 518 485 496 b 207 411 417 450 293 450 b 58 193 78 351 58 249 b 119 39 58 138 78 81 b 294 -17 147 13 193 -17 b 504 96 333 -17 426 -17 b 511 0 504 75 504 43 z m 485 331 b 446 157 485 256 482 201 b 358 117 426 135 396 117 b 258 217 290 117 258 169 b 485 331 258 300 353 342 z m 207 824 b 281 886 225 876 257 886 b 343 872 299 886 326 878 l 403 850 b 475 835 418 844 444 835 b 575 875 522 835 554 854 b 631 1004 614 911 625 954 l 560 1004 b 494 940 553 969 535 940 b 447 949 471 940 456 946 l 368 979 b 299 994 365 981 328 994 b 135 824 215 994 150 926 z "},"ç":{"ha":694,"x_min":0,"x_max":0,"o":"m 464 254 b 369 119 456 129 392 119 b 314 143 354 119 333 122 b 263 358 267 194 263 319 b 371 582 263 435 274 582 b 461 453 450 582 458 478 l 663 453 b 376 715 661 643 507 715 b 49 351 283 715 49 671 b 138 75 49 235 78 143 b 331 -17 207 -4 294 -12 l 257 -122 l 286 -151 b 342 -139 299 -146 315 -139 b 404 -190 389 -139 404 -171 b 326 -243 404 -221 374 -243 b 229 -218 297 -243 263 -232 l 200 -276 b 335 -307 218 -285 271 -307 b 510 -181 399 -307 510 -282 b 394 -81 510 -143 486 -81 b 344 -86 371 -81 360 -83 l 394 -18 b 576 47 449 -15 513 -7 b 667 254 657 115 664 199 z "},"é":{"ha":772,"x_min":0,"x_max":0,"o":"m 726 299 b 685 556 729 357 732 460 b 401 725 621 686 501 725 b 204 667 325 725 258 703 b 58 335 86 585 58 449 b 149 61 58 222 85 128 b 396 -26 222 -15 336 -26 b 642 56 499 -26 590 1 b 708 208 699 115 706 175 l 521 208 b 399 111 501 131 450 111 b 256 299 256 111 256 253 z m 263 428 b 394 585 267 510 304 585 b 517 428 514 585 517 460 z m 594 1014 l 408 1014 l 293 813 l 404 813 z "},"ê":{"ha":772,"x_min":0,"x_max":0,"o":"m 726 299 b 685 556 729 357 732 460 b 401 725 621 686 501 725 b 204 667 325 725 258 703 b 58 335 86 585 58 449 b 149 61 58 222 85 128 b 396 -26 222 -15 336 -26 b 642 56 499 -26 590 1 b 708 208 699 115 706 175 l 521 208 b 399 111 501 131 450 111 b 256 299 256 111 256 253 z m 263 428 b 394 585 267 510 304 585 b 517 428 514 585 517 460 z m 163 813 l 288 813 l 385 931 l 479 813 l 603 813 l 458 1014 l 315 1014 z "},"ë":{"ha":772,"x_min":0,"x_max":0,"o":"m 726 299 b 685 556 729 357 732 460 b 401 725 621 686 501 725 b 204 667 325 725 258 703 b 58 335 86 585 58 449 b 149 61 58 222 85 128 b 396 -26 222 -15 336 -26 b 642 56 499 -26 590 1 b 708 208 699 115 706 175 l 521 208 b 399 111 501 131 450 111 b 256 299 256 111 256 253 z m 263 428 b 394 585 267 510 304 585 b 517 428 514 585 517 460 z m 432 832 l 574 832 l 574 996 l 432 996 z m 193 832 l 335 832 l 335 996 l 193 996 z "},"è":{"ha":772,"x_min":0,"x_max":0,"o":"m 726 299 b 685 556 729 357 732 460 b 401 725 621 686 501 725 b 204 667 325 725 258 703 b 58 335 86 585 58 449 b 149 61 58 222 85 128 b 396 -26 222 -15 336 -26 b 642 56 499 -26 590 1 b 708 208 699 115 706 175 l 521 208 b 399 111 501 131 450 111 b 256 299 256 111 256 253 z m 263 428 b 394 585 267 510 304 585 b 517 428 514 585 517 460 z m 371 1014 l 176 1014 l 369 813 l 488 813 z "},"í":{"ha":386,"x_min":0,"x_max":0,"o":"m 90 0 l 296 0 l 296 703 l 90 703 z m 401 1014 l 215 1014 l 100 813 l 211 813 z "},"î":{"ha":386,"x_min":0,"x_max":0,"o":"m 90 0 l 296 0 l 296 703 l 90 703 z m -31 813 l 94 813 l 192 931 l 286 813 l 410 813 l 265 1014 l 122 1014 z "},"ï":{"ha":386,"x_min":0,"x_max":0,"o":"m 90 0 l 296 0 l 296 703 l 90 703 z m 239 832 l 381 832 l 381 996 l 239 996 z m 0 832 l 142 832 l 142 996 l 0 996 z "},"ì":{"ha":386,"x_min":0,"x_max":0,"o":"m 90 0 l 296 0 l 296 703 l 90 703 z m 178 1014 l -17 1014 l 176 813 l 294 813 z "},"ñ":{"ha":849,"x_min":0,"x_max":0,"o":"m 93 0 l 300 0 l 300 411 b 325 518 300 465 313 500 b 432 572 347 551 388 572 b 532 513 485 572 517 543 b 543 436 543 490 543 465 l 543 0 l 753 0 l 753 379 b 733 589 753 510 749 546 b 519 721 715 638 657 721 b 292 599 367 721 311 631 l 286 704 l 89 704 b 93 576 93 656 93 579 z m 246 824 b 319 886 264 876 296 886 b 382 872 338 886 365 878 l 442 850 b 514 835 457 844 483 835 b 614 875 561 835 593 854 b 669 1004 653 911 664 954 l 599 1004 b 533 940 592 969 574 940 b 486 949 510 940 494 946 l 407 979 b 338 994 404 981 367 994 b 174 824 254 994 189 926 z "},"ó":{"ha":849,"x_min":0,"x_max":0,"o":"m 58 344 b 417 -25 58 99 217 -25 b 785 350 671 -25 785 153 b 421 718 785 546 675 718 b 58 344 144 718 58 514 z m 269 343 b 421 581 269 407 271 581 b 575 358 557 581 575 451 b 424 118 575 172 514 118 b 269 343 322 118 269 186 z m 633 1014 l 447 1014 l 332 813 l 443 813 z "},"ô":{"ha":849,"x_min":0,"x_max":0,"o":"m 58 344 b 417 -25 58 99 217 -25 b 785 350 671 -25 785 153 b 421 718 785 546 675 718 b 58 344 144 718 58 514 z m 269 343 b 421 581 269 407 271 581 b 575 358 557 581 575 451 b 424 118 575 172 514 118 b 269 343 322 118 269 186 z m 201 813 l 326 813 l 424 931 l 518 813 l 642 813 l 497 1014 l 354 1014 z "},"ö":{"ha":849,"x_min":0,"x_max":0,"o":"m 58 344 b 417 -25 58 99 217 -25 b 785 350 671 -25 785 153 b 421 718 785 546 675 718 b 58 344 144 718 58 514 z m 269 343 b 421 581 269 407 271 581 b 575 358 557 581 575 451 b 424 118 575 172 514 118 b 269 343 322 118 269 186 z m 471 832 l 613 832 l 613 996 l 471 996 z m 232 832 l 374 832 l 374 996 l 232 996 z "},"ò":{"ha":849,"x_min":0,"x_max":0,"o":"m 58 344 b 417 -25 58 99 217 -25 b 785 350 671 -25 785 153 b 421 718 785 546 675 718 b 58 344 144 718 58 514 z m 269 343 b 421 581 269 407 271 581 b 575 358 557 581 575 451 b 424 118 575 172 514 118 b 269 343 322 118 269 186 z m 410 1014 l 215 1014 l 408 813 l 526 813 z "},"õ":{"ha":849,"x_min":0,"x_max":0,"o":"m 58 344 b 417 -25 58 99 217 -25 b 785 350 671 -25 785 153 b 421 718 785 546 675 718 b 58 344 144 718 58 514 z m 269 343 b 421 581 269 407 271 581 b 575 358 557 581 575 451 b 424 118 575 172 514 118 b 269 343 322 118 269 186 z m 246 824 b 319 886 264 876 296 886 b 382 872 338 886 365 878 l 442 850 b 514 835 457 844 483 835 b 614 875 561 835 593 854 b 669 1004 653 911 664 954 l 599 1004 b 533 940 592 969 574 940 b 486 949 510 940 494 946 l 407 979 b 338 994 404 981 367 994 b 174 824 254 994 189 926 z "},"š":{"ha":694,"x_min":0,"x_max":0,"o":"m 40 203 b 92 65 42 169 46 114 b 332 -21 156 -1 242 -21 b 654 221 550 -21 654 100 b 467 417 654 317 594 382 l 340 451 b 244 525 279 468 244 478 b 342 594 244 568 286 594 b 442 511 374 594 436 589 l 629 511 b 363 718 624 651 507 718 b 56 499 181 718 56 635 b 233 304 56 356 176 321 l 361 269 b 458 190 442 247 458 222 b 350 107 458 149 424 107 b 233 203 264 107 236 158 z m 447 1014 l 350 888 l 253 1014 l 122 1014 l 267 813 l 429 813 l 576 1014 z "},"ú":{"ha":849,"x_min":0,"x_max":0,"o":"m 83 701 l 83 265 b 129 76 83 231 83 133 b 340 -18 168 25 246 -18 b 547 93 474 -18 526 63 l 554 0 l 754 0 b 749 51 751 19 750 32 b 744 239 749 69 747 88 l 744 701 l 533 701 l 533 347 b 401 129 533 228 533 129 b 292 283 292 129 292 222 l 292 701 z m 633 1014 l 447 1014 l 332 813 l 443 813 z "},"û":{"ha":849,"x_min":0,"x_max":0,"o":"m 83 701 l 83 265 b 129 76 83 231 83 133 b 340 -18 168 25 246 -18 b 547 93 474 -18 526 63 l 554 0 l 754 0 b 749 51 751 19 750 32 b 744 239 749 69 747 88 l 744 701 l 533 701 l 533 347 b 401 129 533 228 533 129 b 292 283 292 129 292 222 l 292 701 z m 201 813 l 326 813 l 424 931 l 518 813 l 642 813 l 497 1014 l 354 1014 z "},"ü":{"ha":849,"x_min":0,"x_max":0,"o":"m 83 701 l 83 265 b 129 76 83 231 83 133 b 340 -18 168 25 246 -18 b 547 93 474 -18 526 63 l 554 0 l 754 0 b 749 51 751 19 750 32 b 744 239 749 69 747 88 l 744 701 l 533 701 l 533 347 b 401 129 533 228 533 129 b 292 283 292 129 292 222 l 292 701 z m 471 832 l 613 832 l 613 996 l 471 996 z m 232 832 l 374 832 l 374 996 l 232 996 z "},"ù":{"ha":849,"x_min":0,"x_max":0,"o":"m 83 701 l 83 265 b 129 76 83 231 83 133 b 340 -18 168 25 246 -18 b 547 93 474 -18 526 63 l 554 0 l 754 0 b 749 51 751 19 750 32 b 744 239 749 69 747 88 l 744 701 l 533 701 l 533 347 b 401 129 533 228 533 129 b 292 283 292 129 292 222 l 292 701 z m 410 1014 l 215 1014 l 408 813 l 526 813 z "},"ý":{"ha":772,"x_min":0,"x_max":0,"o":"m 19 701 l 289 -3 l 200 -267 l 407 -267 l 492 13 l 757 701 l 553 701 l 396 215 l 242 701 z m 594 1014 l 408 1014 l 293 813 l 404 813 z "},"ÿ":{"ha":772,"x_min":0,"x_max":0,"o":"m 19 701 l 289 -3 l 200 -267 l 407 -267 l 492 13 l 757 701 l 553 701 l 396 215 l 242 701 z m 432 832 l 574 832 l 574 996 l 432 996 z m 193 832 l 335 832 l 335 996 l 193 996 z "},"ž":{"ha":694,"x_min":0,"x_max":0,"o":"m 44 0 l 643 0 l 643 142 l 274 142 l 629 525 l 629 701 l 54 701 l 54 564 l 400 564 l 44 181 z m 447 1014 l 350 888 l 253 1014 l 122 1014 l 267 813 l 429 813 l 576 1014 z "},"Ω":{"ha":976,"x_min":0,"x_max":0,"o":"m 236 147 l 50 147 l 50 0 l 418 0 l 418 108 b 254 497 332 160 254 299 b 490 826 254 688 347 826 b 719 504 640 826 719 674 b 556 108 719 286 640 163 l 556 0 l 922 0 l 922 147 l 735 147 l 735 151 b 904 544 819 229 904 368 b 492 978 904 746 761 978 b 69 535 239 978 69 775 b 236 151 69 360 153 229 z "},"μ":{"ha":849,"x_min":0,"x_max":0,"o":"m 97 -294 l 272 -294 l 272 57 b 413 -12 292 32 325 -12 b 571 83 508 -12 549 49 l 571 0 l 724 0 l 724 701 l 544 701 l 544 358 b 408 136 544 264 540 136 b 276 363 288 136 276 233 l 276 701 l 99 701 z "},"π":{"ha":835,"x_min":0,"x_max":0,"o":"m 803 569 l 817 724 l 235 724 b 6 676 114 724 40 704 l 25 556 b 160 569 56 565 96 569 b 75 0 157 421 121 161 l 251 0 b 339 569 300 144 332 422 l 524 569 l 524 197 b 547 0 524 101 531 29 l 724 0 b 706 206 714 43 706 106 l 706 569 z "},"€":{"ha":772,"x_min":0,"x_max":0,"o":"m 490 428 l 292 428 b 290 497 290 451 290 475 l 292 518 l 507 518 l 531 643 l 301 643 b 453 833 325 769 376 833 b 575 651 517 833 569 765 l 751 651 b 453 974 751 868 610 974 b 117 643 269 974 156 850 l 33 643 l 8 518 l 104 518 b 103 478 104 506 103 492 b 104 428 103 461 103 444 l 33 428 l 8 303 l 118 303 b 444 -18 151 114 254 -18 b 753 311 633 -18 753 107 l 574 311 b 444 131 571 200 522 131 b 303 303 357 131 313 206 l 467 303 z "},"ℓ":{"ha":714,"x_min":0,"x_max":0,"o":"m 615 260 b 440 135 576 197 514 135 b 321 279 374 135 324 185 l 319 339 b 590 814 486 499 590 651 b 396 1060 590 950 531 1060 b 144 707 258 1060 144 953 l 144 364 b 32 269 110 331 72 303 l 76 174 b 147 228 100 190 125 211 l 147 214 b 399 -11 163 92 233 -11 b 689 183 508 -11 615 40 z m 319 711 b 404 932 319 883 364 932 b 476 821 458 932 476 889 b 319 504 476 726 413 610 z "},"℮":{"ha":1204,"x_min":0,"x_max":0,"o":"m 1156 469 l 1156 483 b 600 983 1156 760 908 983 b 47 483 294 983 47 760 b 600 -14 47 208 294 -14 b 1039 179 779 -14 940 63 l 960 179 b 601 14 872 79 746 14 b 263 161 469 14 350 71 b 250 192 256 171 250 181 l 250 464 b 258 469 250 468 253 469 z m 953 506 b 946 497 953 503 950 497 l 258 497 b 250 506 253 497 250 503 l 250 772 b 264 807 250 786 256 799 b 601 953 351 896 471 953 b 939 811 733 953 851 897 b 953 779 947 803 953 790 z "},"∂":{"ha":796,"x_min":0,"x_max":0,"o":"m 143 874 b 324 939 179 903 239 939 b 553 617 464 939 553 785 l 553 571 l 551 571 b 350 679 531 606 461 679 b 51 318 185 679 51 540 b 340 -10 51 171 144 -10 b 731 564 586 -10 731 219 b 347 1089 731 911 551 1089 b 92 1008 217 1089 135 1042 z m 358 142 b 231 311 281 142 231 218 b 386 535 231 429 294 535 b 536 422 471 535 524 464 b 360 142 522 293 460 142 z "},"∏":{"ha":999,"x_min":0,"x_max":0,"o":"m 964 799 l 964 963 l 33 963 l 33 799 l 174 799 l 174 -133 l 353 -133 l 353 799 l 644 799 l 644 -133 l 824 -133 l 824 799 z "},"∑":{"ha":771,"x_min":0,"x_max":0,"o":"m 746 -133 l 746 35 l 256 35 l 256 39 l 565 444 l 286 804 l 286 808 l 722 808 l 722 963 l 44 963 l 44 836 l 361 415 l 32 -17 l 32 -133 z "},"∙":{"ha":386,"x_min":0,"x_max":0,"o":"m 103 296 l 279 296 l 279 481 l 103 481 z "},"√":{"ha":821,"x_min":0,"x_max":0,"o":"m 833 1156 l 708 1156 l 475 142 b 453 11 465 92 458 42 l 451 11 b 424 133 444 43 433 89 l 282 565 l 43 468 l 74 368 l 175 408 l 379 -192 l 524 -192 z "},"∞":{"ha":1072,"x_min":0,"x_max":0,"o":"m 1007 399 b 792 628 1007 536 913 626 b 543 475 668 628 600 540 b 296 628 472 567 397 628 b 65 390 164 628 65 531 b 283 156 65 251 169 156 b 538 313 394 156 467 224 b 785 156 629 190 706 156 b 1007 396 897 156 1007 246 z m 296 254 b 167 389 222 254 167 315 b 292 532 167 471 214 532 b 485 385 381 532 428 461 b 299 254 432 322 375 254 z m 782 532 b 906 389 857 532 906 472 b 788 254 906 329 864 254 b 593 394 718 254 675 292 b 781 532 636 444 697 532 z "},"∫":{"ha":550,"x_min":0,"x_max":0,"o":"m 519 1175 b 433 1192 503 1182 469 1192 b 269 1128 374 1192 310 1171 b 186 814 210 1064 186 976 b 207 136 186 578 207 389 b 171 -75 207 14 194 -43 b 110 -103 156 -96 132 -103 b 50 -89 85 -103 64 -94 l 28 -217 b 136 -239 49 -228 92 -239 b 317 -137 206 -239 279 -211 b 367 139 347 -82 367 8 b 346 797 367 388 346 572 b 382 1028 346 911 354 990 b 451 1063 400 1053 425 1063 b 500 1051 471 1063 488 1057 z "},"≈":{"ha":758,"x_min":0,"x_max":0,"o":"m 640 625 b 517 526 603 565 569 526 b 397 575 475 526 447 546 b 253 626 363 596 318 626 b 51 483 167 626 92 564 l 115 425 b 243 524 149 475 183 524 b 361 478 289 524 321 503 b 515 424 424 440 460 424 b 703 567 593 424 660 482 z m 640 367 b 517 267 601 307 569 267 b 397 318 472 267 440 293 b 251 367 363 338 319 367 b 51 225 167 367 92 306 l 115 167 b 244 267 150 217 182 267 b 361 219 288 267 319 246 b 515 164 422 183 460 164 b 703 307 594 164 660 225 z "},"≠":{"ha":758,"x_min":0,"x_max":0,"o":"m 558 708 l 476 740 l 410 588 l 65 588 l 65 483 l 371 483 l 290 297 l 65 297 l 65 194 l 250 194 l 196 71 l 278 38 l 346 194 l 692 194 l 692 297 l 386 297 l 467 483 l 692 483 l 692 588 l 506 588 z "},"≤":{"ha":758,"x_min":0,"x_max":0,"o":"m 688 138 l 688 258 l 176 500 l 176 503 l 688 743 l 688 864 l 74 557 l 74 444 z m 693 -19 l 693 86 l 68 86 l 68 -19 z "},"≥":{"ha":758,"x_min":0,"x_max":0,"o":"m 75 864 l 75 743 l 586 503 l 586 500 l 76 258 l 76 138 l 690 444 l 690 557 z m 690 -19 l 690 86 l 68 86 l 68 -19 z "},"◊":{"ha":819,"x_min":0,"x_max":0,"o":"m 753 481 l 486 1029 l 342 1029 l 68 481 l 333 -68 l 478 -68 z m 593 476 l 436 153 b 413 76 429 138 417 96 l 406 76 b 383 156 403 94 393 128 l 228 483 l 382 800 b 408 883 393 826 403 857 l 414 883 b 439 800 418 858 429 825 z "}," ":{"ha":386,"x_min":0,"x_max":0,"o":""},"­":{"ha":463,"x_min":0,"x_max":0,"o":"m 61 289 l 406 289 l 406 446 l 61 446 z "},"ˉ":{"ha":386,"x_min":0,"x_max":0,"o":"m 425 867 l 425 961 l -50 961 l -50 867 z "},"Ω":{"ha":976,"x_min":0,"x_max":0,"o":"m 236 147 l 50 147 l 50 0 l 418 0 l 418 108 b 254 497 332 160 254 299 b 490 826 254 688 347 826 b 719 504 640 826 719 674 b 556 108 719 286 640 163 l 556 0 l 922 0 l 922 147 l 735 147 l 735 151 b 904 544 819 229 904 368 b 492 978 904 746 761 978 b 69 535 239 978 69 775 b 236 151 69 360 153 229 z "},"∕":{"ha":232,"x_min":0,"x_max":0,"o":"m -232 -39 l -118 -39 l 461 1007 l 347 1007 z "},"∆":{"ha":907,"x_min":0,"x_max":0,"o":"m 36 0 l 869 0 l 869 107 l 567 983 l 350 983 l 36 106 z m 224 146 l 378 561 b 449 788 399 638 438 739 l 453 788 b 529 540 468 728 508 614 l 675 146 z "},"‐":{"ha":463,"x_min":0,"x_max":0,"o":"m 61 289 l 406 289 l 406 446 l 61 446 z "}}}
